<?xml version="1.0" encoding="UTF-8" ?>
<!DOCTYPE svg PUBLIC "-//W3C//DTD SVG 1.1//EN" "http://www.w3.org/Graphics/SVG/1.1/DTD/svg11.dtd">
<svg width="1300pt" height="1015pt" viewBox="0 0 1300 1015" version="1.1" xmlns="http://www.w3.org/2000/svg">
<g id="#020202ff">
<path fill="#020202" opacity="1.00" d=" M 0.00 0.00 L 46.34 0.00 C 47.30 3.43 48.22 6.92 49.91 10.08 C 56.72 22.19 64.08 33.99 70.77 46.17 C 72.46 49.07 74.60 51.81 77.42 53.69 C 81.81 56.24 87.06 56.35 92.00 56.36 C 104.02 56.26 116.03 56.32 128.04 56.35 C 132.70 56.39 137.71 55.49 141.22 52.19 C 145.97 47.64 148.43 41.40 151.80 35.88 C 157.12 26.82 162.24 17.66 167.69 8.68 C 169.26 6.05 169.61 2.95 170.20 0.00 L 262.57 0.00 C 265.83 11.39 273.32 20.83 278.82 31.16 C 282.90 37.76 285.96 45.06 291.00 51.02 C 294.86 55.67 301.34 56.34 306.99 56.35 C 319.00 56.28 331.01 56.32 343.03 56.35 C 348.90 56.33 355.64 55.48 359.48 50.49 C 364.14 44.56 367.19 37.58 371.16 31.20 C 376.68 20.88 384.16 11.40 387.40 0.00 L 480.22 0.00 C 480.84 3.14 481.22 6.42 482.78 9.28 C 489.73 21.32 496.76 33.32 503.59 45.43 C 506.53 50.53 510.96 55.37 517.20 55.87 C 527.42 56.91 537.74 56.03 548.00 56.31 C 555.33 56.08 562.93 57.24 570.04 54.91 C 575.68 52.92 578.63 47.24 581.43 42.38 C 587.49 32.11 593.32 21.72 599.38 11.45 C 601.45 7.91 602.62 3.96 603.60 0.00 L 696.36 0.00 C 697.65 5.11 699.54 10.08 702.43 14.51 C 708.17 24.74 714.50 34.63 720.04 44.98 C 722.34 49.16 725.50 53.42 730.24 54.94 C 735.29 56.72 740.73 56.31 746.00 56.34 C 757.01 56.19 768.02 56.47 779.03 56.27 C 785.28 56.19 791.81 53.61 794.89 47.87 C 802.58 34.87 809.89 21.64 817.66 8.69 C 819.23 6.05 819.61 2.96 820.21 0.00 L 912.60 0.00 C 914.55 7.93 919.24 14.71 923.29 21.67 C 927.43 28.59 931.47 35.57 935.36 42.63 C 937.79 46.71 940.10 51.20 944.28 53.76 C 948.43 56.07 953.33 56.36 957.99 56.35 C 967.66 56.31 977.33 56.27 987.00 56.35 C 993.09 56.31 999.55 56.85 1005.21 54.12 C 1009.85 51.44 1012.34 46.44 1015.02 42.01 C 1020.74 31.49 1027.09 21.34 1032.97 10.91 C 1034.97 7.51 1036.28 3.78 1037.39 0.00 L 1129.70 0.00 C 1130.84 7.47 1135.44 13.57 1139.01 20.01 C 1143.05 27.25 1147.43 34.30 1151.37 41.60 C 1153.78 45.96 1156.28 50.60 1160.46 53.54 C 1166.65 57.15 1174.12 56.22 1180.99 56.32 C 1192.59 56.05 1204.24 57.08 1215.81 55.92 C 1221.18 55.43 1225.75 52.00 1228.45 47.44 C 1235.37 35.39 1242.51 23.46 1249.37 11.38 C 1251.43 7.86 1252.57 3.93 1253.56 0.00 L 1300.00 0.00 L 1300.00 5.95 C 1292.64 6.01 1285.28 6.08 1277.93 6.19 C 1274.16 6.37 1270.08 6.62 1266.91 8.87 C 1262.61 12.18 1260.58 17.37 1257.82 21.85 C 1251.96 31.71 1246.19 41.60 1240.55 51.58 C 1238.55 55.36 1236.39 59.48 1236.99 63.91 C 1237.73 69.54 1240.92 74.43 1243.84 79.17 C 1250.22 89.56 1255.67 100.48 1262.13 110.81 C 1265.30 115.95 1270.77 119.91 1276.94 120.11 C 1284.62 120.42 1292.31 120.09 1300.00 120.19 L 1300.00 133.30 C 1292.67 133.48 1285.33 133.22 1278.01 133.41 C 1271.43 133.46 1265.42 137.54 1262.06 143.05 C 1256.44 152.17 1251.49 161.67 1246.01 170.87 C 1242.92 176.56 1239.08 181.95 1237.24 188.23 C 1235.62 194.25 1239.34 199.83 1242.07 204.90 C 1249.15 216.85 1255.69 229.13 1263.17 240.84 C 1266.10 245.50 1271.73 247.43 1277.01 247.58 C 1284.67 247.75 1292.33 247.71 1300.00 247.77 L 1300.00 259.73 C 1292.64 259.74 1285.29 259.67 1277.94 259.88 C 1273.69 260.15 1268.88 260.51 1265.71 263.71 C 1261.86 267.43 1259.72 272.44 1256.99 276.95 C 1250.89 287.83 1243.98 298.28 1238.48 309.48 C 1235.62 314.80 1237.10 321.01 1240.01 325.95 C 1247.01 338.58 1254.33 351.04 1261.48 363.58 C 1264.58 369.19 1270.30 373.73 1276.92 373.80 C 1284.61 374.01 1292.30 373.76 1300.00 373.87 L 1300.00 387.14 C 1292.32 387.30 1284.64 386.95 1276.98 387.28 C 1271.18 387.54 1265.75 390.83 1262.75 395.78 C 1257.51 404.28 1252.65 413.03 1247.74 421.74 C 1244.04 428.16 1239.82 434.37 1237.35 441.41 C 1235.24 446.83 1238.62 452.17 1241.02 456.87 C 1247.81 468.47 1254.48 480.14 1261.24 491.76 C 1263.79 496.63 1268.36 500.59 1274.02 501.04 C 1282.65 501.76 1291.34 501.38 1300.00 501.46 L 1300.00 513.58 C 1292.32 513.49 1284.64 513.50 1276.97 513.67 C 1271.72 513.75 1266.16 515.62 1263.24 520.25 C 1258.86 526.97 1255.07 534.06 1250.98 540.97 C 1246.69 548.96 1241.35 556.42 1237.83 564.81 C 1235.22 570.91 1238.50 577.21 1241.51 582.46 C 1247.02 591.73 1252.10 601.23 1257.51 610.55 C 1260.82 615.71 1263.35 621.90 1268.81 625.21 C 1273.33 628.10 1278.87 627.71 1284.00 627.69 C 1289.33 627.62 1294.66 627.64 1300.00 627.67 L 1300.00 640.84 C 1292.64 640.95 1285.29 640.65 1277.95 640.93 C 1271.55 641.09 1265.48 644.74 1262.25 650.25 C 1256.39 660.10 1250.82 670.11 1245.08 680.03 C 1242.32 685.05 1239.09 689.89 1237.36 695.38 C 1235.67 700.86 1238.70 706.18 1241.15 710.90 C 1247.72 722.55 1254.74 733.94 1261.33 745.58 C 1263.74 749.75 1267.26 753.90 1272.36 754.50 C 1281.50 755.82 1290.79 755.03 1300.00 755.28 L 1300.00 767.22 C 1292.03 767.30 1284.06 767.20 1276.10 767.47 C 1270.83 767.68 1265.50 770.03 1262.74 774.69 C 1256.04 785.75 1249.73 797.05 1243.09 808.14 C 1240.25 813.35 1236.43 818.74 1236.95 824.95 C 1238.12 831.48 1242.04 837.07 1245.11 842.83 C 1251.12 852.57 1256.35 862.78 1262.47 872.46 C 1265.60 877.41 1270.94 881.25 1276.95 881.34 C 1284.63 881.57 1292.31 881.29 1300.00 881.35 L 1300.00 894.68 C 1292.65 894.72 1285.29 894.46 1277.95 894.68 C 1271.16 894.74 1265.11 899.11 1261.76 904.82 C 1256.38 913.80 1251.32 922.97 1246.05 932.02 C 1242.95 937.69 1239.21 943.11 1237.33 949.35 C 1235.74 954.53 1238.49 959.61 1240.90 964.05 C 1247.61 976.00 1254.70 987.73 1261.47 999.65 C 1263.02 1002.29 1264.99 1004.77 1267.52 1006.56 C 1270.94 1008.61 1275.07 1008.74 1278.95 1008.85 C 1285.96 1008.87 1292.98 1009.05 1300.00 1009.03 L 1300.00 1015.00 L 1253.59 1015.00 C 1252.03 1006.55 1246.92 999.55 1242.81 992.23 C 1238.76 985.27 1234.57 978.40 1230.70 971.36 C 1228.63 967.57 1226.19 963.79 1222.56 961.35 C 1218.19 958.73 1212.92 958.67 1207.99 958.63 C 1196.99 958.69 1185.99 958.70 1175.00 958.64 C 1169.64 958.64 1163.72 958.86 1159.35 962.35 C 1154.66 966.30 1152.24 972.07 1149.25 977.26 C 1143.77 986.77 1138.24 996.25 1132.75 1005.75 C 1131.10 1008.59 1130.43 1011.83 1129.71 1015.00 L 1037.42 1015.00 C 1035.09 1005.86 1029.37 998.23 1024.87 990.12 C 1019.60 981.92 1015.67 972.90 1009.93 965.02 C 1006.59 960.24 1000.55 958.78 995.04 958.69 C 982.96 958.52 970.89 958.93 958.82 958.47 C 952.09 958.18 944.42 959.30 940.06 965.01 C 935.39 971.27 932.23 978.48 928.11 985.09 C 922.82 994.98 915.60 1004.04 912.60 1015.00 L 820.25 1015.00 C 819.60 1012.07 819.21 1009.02 817.69 1006.40 C 811.82 996.54 806.18 986.55 800.40 976.64 C 797.61 971.86 795.39 966.57 791.27 962.75 C 786.51 958.73 779.90 958.63 774.00 958.63 C 763.00 958.71 752.00 958.69 741.00 958.63 C 736.15 958.66 730.91 958.90 726.76 961.71 C 721.25 965.96 718.88 972.76 715.35 978.52 C 710.84 985.97 706.33 993.43 702.10 1001.05 C 699.38 1005.33 697.58 1010.09 696.38 1015.00 L 603.61 1015.00 C 602.05 1006.55 596.96 999.52 592.78 992.23 C 587.97 984.02 583.41 975.67 578.41 967.58 C 576.39 964.65 574.08 961.58 570.62 960.32 C 565.01 958.15 558.88 958.71 553.00 958.65 C 542.99 958.72 532.98 958.65 522.97 958.65 C 518.06 958.77 512.59 959.31 508.82 962.82 C 503.92 967.57 501.26 973.97 497.79 979.73 C 493.00 988.24 488.00 996.63 483.15 1005.11 C 481.39 1008.13 480.86 1011.62 480.19 1015.00 L 387.43 1015.00 C 385.15 1006.09 379.61 998.62 375.23 990.69 C 371.66 984.61 368.06 978.54 364.68 972.35 C 362.37 968.46 360.14 964.26 356.31 961.66 C 352.37 959.10 347.55 958.29 342.92 958.45 C 330.93 958.78 318.94 958.55 306.95 958.59 C 302.60 958.60 298.04 959.03 294.21 961.26 C 290.10 963.86 287.74 968.26 285.34 972.33 C 281.61 979.18 277.67 985.91 273.68 992.62 C 269.54 999.83 264.57 1006.77 262.62 1015.00 L 170.24 1015.00 C 169.66 1012.29 169.32 1009.47 168.02 1007.00 C 160.46 994.17 153.07 981.24 145.67 968.32 C 142.70 962.91 137.25 959.08 130.97 958.88 C 119.66 958.31 108.32 958.88 97.00 958.66 C 90.43 958.72 83.32 957.95 77.37 961.32 C 71.43 965.40 69.03 972.52 65.38 978.41 C 60.18 986.95 55.17 995.61 50.26 1004.33 C 48.42 1007.66 47.39 1011.34 46.39 1015.00 L 0.00 1015.00 L 0.00 1009.09 C 6.68 1009.04 13.36 1008.88 20.04 1008.85 C 24.02 1008.77 28.19 1008.71 31.84 1006.92 C 34.56 1005.35 36.54 1002.77 38.18 1000.15 C 45.49 987.47 53.05 974.92 60.15 962.12 C 62.60 957.79 64.26 952.51 62.17 947.70 C 58.79 939.24 53.46 931.76 49.16 923.77 C 45.35 917.26 41.85 910.57 37.88 904.17 C 34.53 898.72 28.55 894.78 22.05 894.69 C 14.70 894.46 7.35 894.72 0.00 894.67 L 0.00 881.33 C 7.68 881.31 15.37 881.56 23.05 881.34 C 29.04 881.21 34.41 877.39 37.53 872.43 C 44.27 861.71 50.10 850.45 56.59 839.58 C 59.12 835.24 61.91 830.86 62.92 825.88 C 63.95 820.92 61.27 816.31 59.06 812.09 C 53.60 802.81 48.40 793.39 42.81 784.21 C 40.22 780.12 38.31 775.55 34.99 771.98 C 31.73 768.44 26.65 767.49 22.05 767.37 C 14.70 767.26 7.35 767.27 0.00 767.23 L 0.00 755.27 C 9.21 755.04 18.51 755.84 27.66 754.51 C 32.76 753.96 36.27 749.84 38.65 745.66 C 43.62 736.99 48.57 728.31 53.72 719.75 C 57.00 713.86 61.03 708.24 62.79 701.66 C 64.14 696.74 61.52 692.04 59.31 687.83 C 53.36 677.10 47.17 666.52 41.10 655.87 C 37.85 649.53 33.25 642.87 25.76 641.43 C 17.25 640.14 8.58 641.16 0.00 640.84 L 0.00 627.70 C 7.67 627.52 15.33 627.82 23.00 627.61 C 28.82 627.54 34.17 624.07 37.19 619.19 C 42.19 611.38 46.58 603.19 51.19 595.15 C 54.92 588.20 59.60 581.70 62.35 574.28 C 64.53 568.66 61.66 562.96 58.95 558.12 C 51.82 545.89 44.87 533.56 37.58 521.43 C 35.14 517.20 30.78 514.36 25.90 513.96 C 17.30 513.21 8.63 513.66 0.00 513.55 L 0.00 501.42 C 7.67 501.51 15.35 501.51 23.02 501.32 C 27.99 501.14 33.47 499.78 36.30 495.30 C 42.89 485.35 48.34 474.70 54.59 464.54 C 57.95 458.63 62.09 452.80 63.11 445.94 C 63.27 439.29 59.00 433.72 55.92 428.16 C 49.54 417.19 43.71 405.89 36.77 395.26 C 33.62 390.23 27.78 387.36 21.94 387.24 C 14.63 387.03 7.31 387.27 0.00 387.14 L 0.00 373.87 C 7.34 373.78 14.68 373.97 22.01 373.85 C 26.23 373.86 30.42 372.36 33.64 369.65 C 36.93 366.76 38.90 362.78 41.07 359.06 C 46.87 349.16 52.48 339.15 58.22 329.21 C 60.27 325.30 62.65 321.35 63.09 316.87 C 63.40 312.49 61.16 308.51 59.22 304.76 C 52.72 293.33 45.86 282.13 39.42 270.68 C 37.52 267.33 35.31 263.90 31.90 261.93 C 28.22 260.13 24.03 259.93 20.02 259.81 C 13.34 259.72 6.67 259.74 0.00 259.72 L 0.00 247.77 C 7.97 247.66 15.94 247.82 23.90 247.52 C 29.44 247.33 34.82 244.55 37.65 239.69 C 44.74 227.73 51.65 215.67 58.65 203.65 C 61.00 199.27 63.93 194.53 62.92 189.33 C 61.56 182.82 57.55 177.34 54.40 171.60 C 48.95 162.35 43.86 152.90 38.34 143.70 C 35.12 138.19 29.45 133.80 22.90 133.47 C 15.27 133.13 7.63 133.51 0.00 133.32 L 0.00 120.19 C 7.69 120.09 15.38 120.43 23.06 120.12 C 29.47 119.87 35.12 115.63 38.27 110.22 C 45.21 98.48 51.73 86.49 58.67 74.75 C 61.74 69.25 64.96 62.54 61.72 56.35 C 55.06 42.71 46.65 30.02 39.30 16.75 C 37.59 13.58 35.47 10.52 32.48 8.43 C 29.06 6.37 24.92 6.28 21.05 6.16 C 14.03 6.13 7.02 5.96 0.00 5.95 L 0.00 0.00 M 190.36 6.48 C 185.54 6.79 181.25 9.75 179.08 14.03 C 171.29 27.83 162.78 41.21 155.19 55.13 C 152.67 60.07 153.07 66.35 155.94 71.06 C 163.11 84.10 170.96 96.75 178.19 109.76 C 181.26 116.01 187.93 120.40 194.96 120.21 C 208.98 120.23 222.99 120.16 237.01 120.23 C 240.71 120.32 244.49 119.67 247.69 117.71 C 252.86 115.18 255.25 109.61 257.97 104.88 C 263.78 94.74 269.46 84.53 275.53 74.54 C 278.64 70.02 280.07 64.39 279.19 58.94 C 278.60 53.80 274.88 49.93 272.59 45.50 C 267.04 35.44 260.90 25.72 255.34 15.67 C 253.49 12.69 251.56 9.35 248.21 7.85 C 243.72 5.99 238.76 6.19 234.00 6.14 C 219.45 5.91 204.88 5.79 190.36 6.48 M 406.39 6.58 C 403.44 7.03 400.36 7.99 398.35 10.33 C 395.11 14.00 393.18 18.56 390.69 22.72 C 385.90 30.68 381.28 38.73 376.66 46.79 C 374.65 50.44 371.69 53.73 371.00 57.97 C 369.92 63.15 370.83 68.71 373.68 73.19 C 379.95 83.70 386.04 94.31 392.04 104.97 C 393.98 108.58 396.00 112.22 398.81 115.25 C 402.20 118.08 406.45 120.17 410.95 120.18 C 425.64 120.38 440.33 120.15 455.03 120.19 C 461.51 120.31 468.16 116.96 471.25 111.13 C 478.91 97.80 486.53 84.45 494.06 71.05 C 497.08 66.36 497.46 60.09 494.80 55.15 C 486.95 40.80 478.33 26.89 470.18 12.70 C 467.44 8.20 462.09 6.26 457.03 6.25 C 440.16 6.00 423.23 5.58 406.39 6.58 M 623.38 6.53 C 617.66 6.83 613.44 11.33 611.15 16.23 C 604.12 28.21 596.89 40.08 590.20 52.26 C 588.24 56.06 585.99 60.29 587.13 64.70 C 588.77 71.61 593.05 77.43 596.42 83.57 C 601.83 92.85 606.98 102.27 612.61 111.41 C 615.93 117.00 622.48 120.52 628.98 120.22 C 643.33 120.16 657.69 120.25 672.04 120.19 C 679.27 120.24 685.73 115.37 689.10 109.20 C 694.01 99.86 699.50 90.86 704.67 81.66 C 707.73 76.24 711.30 70.94 712.85 64.84 C 713.92 60.66 712.02 56.55 710.12 52.93 C 703.15 40.00 695.27 27.59 688.24 14.70 C 685.51 9.89 680.65 6.30 674.96 6.35 C 657.78 5.85 640.54 5.71 623.38 6.53 M 840.35 6.48 C 835.84 6.82 831.61 9.36 829.47 13.39 C 821.48 27.38 812.94 41.05 805.16 55.16 C 802.68 59.84 802.98 65.81 805.61 70.37 C 808.76 76.47 812.31 82.34 815.79 88.25 C 820.54 95.63 824.12 103.68 828.86 111.07 C 832.16 116.59 838.42 120.55 844.96 120.22 C 859.32 120.17 873.68 120.23 888.04 120.20 C 892.88 120.34 897.62 118.40 901.24 115.25 C 905.48 110.53 907.94 104.60 911.23 99.24 C 916.16 90.53 921.13 81.85 926.31 73.28 C 930.22 67.10 930.59 58.62 926.73 52.33 C 920.93 42.74 915.47 32.96 909.68 23.36 C 906.91 18.82 904.85 13.77 901.15 9.87 C 898.32 6.90 893.93 6.52 890.07 6.24 C 873.50 5.94 856.90 5.71 840.35 6.48 M 1056.40 6.58 C 1051.80 6.90 1047.99 9.87 1045.80 13.80 C 1037.91 27.23 1030.22 40.78 1022.27 54.18 C 1019.51 60.23 1020.13 67.70 1023.72 73.29 C 1029.03 82.05 1034.08 90.96 1039.15 99.86 C 1042.22 105.06 1044.70 110.69 1048.77 115.23 C 1052.39 118.38 1057.12 120.35 1061.97 120.21 C 1074.65 120.24 1087.32 120.15 1100.00 120.23 C 1106.40 120.74 1113.28 119.74 1118.04 115.03 C 1122.21 110.27 1124.70 104.33 1127.97 98.95 C 1133.38 89.67 1138.99 80.49 1144.06 71.02 C 1146.74 66.49 1147.30 60.61 1145.12 55.79 C 1137.50 41.64 1128.94 28.03 1120.94 14.09 C 1119.40 11.39 1117.22 8.90 1114.33 7.64 C 1110.74 6.23 1106.81 6.17 1103.01 6.15 C 1087.48 6.03 1071.90 5.61 1056.40 6.58 M 81.33 70.33 C 72.30 73.34 68.73 82.82 64.25 90.31 C 59.32 97.82 55.42 105.94 50.66 113.55 C 48.38 117.71 45.85 122.09 46.09 127.00 C 45.86 131.36 47.96 135.30 49.96 139.01 C 56.17 150.61 63.28 161.68 69.76 173.12 C 71.79 176.95 74.88 180.25 78.73 182.29 C 81.55 183.79 84.86 183.58 87.96 183.66 C 102.65 183.56 117.33 183.70 132.02 183.59 C 138.71 183.81 143.79 178.32 147.06 173.08 C 152.83 162.84 158.70 152.64 164.56 142.45 C 166.51 139.05 169.41 135.99 169.90 131.95 C 170.57 127.17 170.67 121.95 168.44 117.54 C 160.68 105.13 153.81 92.19 146.37 79.58 C 143.04 74.78 138.19 70.01 132.05 69.65 C 118.04 69.63 104.02 69.85 90.01 69.72 C 87.11 69.76 84.16 69.59 81.33 70.33 M 298.27 70.25 C 292.54 71.81 288.60 76.81 285.76 81.75 C 278.93 93.60 272.00 105.40 265.26 117.30 C 261.63 123.05 261.64 130.91 265.28 136.64 C 270.33 145.58 275.78 154.29 280.69 163.31 C 284.83 169.69 287.52 177.58 294.33 181.72 C 297.44 183.87 301.38 183.58 304.98 183.66 C 319.66 183.55 334.34 183.72 349.02 183.57 C 355.96 183.62 361.06 177.78 364.18 172.19 C 370.91 160.28 377.85 148.49 384.70 136.65 C 388.32 130.90 388.40 123.07 384.73 117.32 C 378.06 105.39 370.95 93.70 364.25 81.77 C 360.94 75.80 355.45 69.68 348.04 69.81 C 334.70 69.65 321.35 69.83 308.00 69.72 C 304.75 69.75 301.46 69.58 298.27 70.25 M 514.34 70.39 C 509.53 72.12 505.83 75.94 503.25 80.24 C 496.95 90.99 490.89 101.87 484.61 112.63 C 481.05 118.20 478.36 125.04 480.08 131.70 C 480.84 136.00 483.48 139.54 485.77 143.13 C 491.57 153.07 497.25 163.09 502.96 173.09 C 506.24 178.34 511.28 183.76 517.98 183.60 C 530.32 183.56 542.66 183.88 555.00 183.60 C 559.46 183.56 563.96 183.93 568.39 183.28 C 572.42 182.38 575.77 179.50 578.22 176.28 C 585.47 164.99 591.61 153.04 598.53 141.55 C 601.04 137.05 604.06 132.37 603.91 127.01 C 603.97 119.60 599.03 113.56 595.68 107.34 C 590.17 97.30 584.41 87.39 578.30 77.69 C 575.13 73.58 570.51 69.76 565.04 69.82 C 551.03 69.63 537.02 69.84 523.01 69.72 C 520.11 69.77 517.14 69.57 514.34 70.39 M 731.31 70.30 C 726.28 72.12 722.24 76.13 719.72 80.78 C 714.75 89.72 709.18 98.32 704.33 107.33 C 700.95 113.54 695.96 119.58 696.10 127.01 C 695.95 132.37 698.92 137.07 701.43 141.58 C 708.00 152.69 714.33 163.95 720.96 175.04 C 724.05 179.65 729.03 183.91 734.92 183.60 C 750.62 183.72 766.32 183.71 782.02 183.59 C 788.71 183.75 793.90 178.44 797.06 173.07 C 803.07 162.15 809.58 151.52 815.67 140.66 C 817.52 137.64 819.99 134.75 820.24 131.05 C 820.46 126.54 820.55 121.68 818.43 117.57 C 811.26 105.64 804.37 93.54 797.49 81.44 C 794.18 75.41 788.36 69.68 781.04 69.77 C 767.03 69.70 753.02 69.81 739.01 69.72 C 736.43 69.77 733.81 69.67 731.31 70.30 M 948.30 70.27 C 940.42 72.46 936.51 80.31 932.81 86.90 C 927.00 97.07 920.98 107.12 915.22 117.32 C 911.62 123.07 911.65 130.92 915.31 136.63 C 921.57 147.70 928.16 158.58 934.40 169.66 C 936.76 173.79 939.11 178.16 943.12 180.92 C 946.11 183.47 950.20 183.66 953.95 183.64 C 967.98 183.62 982.01 183.61 996.05 183.65 C 999.30 183.61 1002.86 183.67 1005.62 181.66 C 1012.64 177.40 1015.42 169.29 1019.65 162.70 C 1024.49 153.63 1030.10 145.00 1035.06 136.00 C 1038.35 130.35 1038.27 122.78 1034.77 117.24 C 1027.61 104.80 1020.41 92.37 1013.12 80.01 C 1010.01 74.63 1004.60 69.69 998.04 69.78 C 984.36 69.66 970.68 69.83 957.01 69.72 C 954.09 69.74 951.14 69.62 948.30 70.27 M 1164.34 70.41 C 1157.63 72.95 1153.48 79.22 1150.32 85.31 C 1144.42 95.46 1138.71 105.71 1132.75 115.82 C 1128.56 122.46 1128.60 131.55 1132.82 138.18 C 1138.81 148.22 1144.59 158.38 1150.38 168.54 C 1153.11 173.58 1156.15 178.84 1161.27 181.78 C 1164.10 183.73 1167.67 183.61 1170.96 183.66 C 1185.67 183.57 1200.37 183.68 1215.08 183.61 C 1220.71 183.93 1225.54 180.02 1228.65 175.68 C 1235.99 163.56 1242.88 151.18 1250.02 138.94 C 1252.96 134.01 1255.01 128.15 1253.41 122.40 C 1251.70 117.26 1248.83 112.61 1246.17 107.93 C 1240.45 97.99 1234.63 88.11 1228.75 78.28 C 1225.44 73.52 1220.10 69.44 1214.03 69.76 C 1200.02 69.79 1186.01 69.63 1172.01 69.73 C 1169.44 69.77 1166.80 69.63 1164.34 70.41 M 191.44 133.69 C 186.54 134.89 181.87 137.88 179.26 142.28 C 175.36 148.49 171.89 154.95 168.33 161.36 C 163.97 168.42 159.85 175.64 155.83 182.90 C 152.72 188.02 152.73 194.91 155.93 199.99 C 163.46 213.39 171.48 226.50 179.16 239.82 C 181.71 244.94 187.51 247.36 192.97 247.57 C 208.33 247.82 223.69 247.77 239.05 247.62 C 243.43 247.55 248.12 246.53 251.46 243.52 C 254.66 239.84 256.76 235.38 259.25 231.21 C 265.04 221.64 270.34 211.78 276.25 202.28 C 280.62 195.74 280.51 186.47 276.01 180.03 C 268.34 167.85 261.90 154.94 254.37 142.67 C 250.93 136.63 243.93 133.06 237.04 133.37 C 221.85 133.57 206.61 132.93 191.44 133.69 M 408.42 133.67 C 404.79 134.41 401.44 136.28 398.64 138.65 C 394.71 142.97 392.48 148.45 389.40 153.33 C 385.36 160.33 381.57 167.46 377.36 174.35 C 375.20 178.53 371.76 182.18 371.02 186.97 C 370.27 191.45 370.18 196.40 372.65 200.40 C 380.84 213.65 388.19 227.40 396.32 240.69 C 399.01 245.51 404.78 247.33 409.98 247.58 C 425.34 247.83 440.70 247.77 456.06 247.60 C 461.04 247.42 466.73 246.03 469.65 241.61 C 472.74 236.96 475.29 231.97 478.23 227.22 C 482.82 220.32 486.42 212.84 490.78 205.80 C 493.20 201.12 496.98 196.60 496.41 190.99 C 496.67 185.72 493.25 181.45 490.93 177.04 C 484.24 165.72 477.96 154.17 471.17 142.92 C 467.64 136.58 460.23 132.88 453.05 133.33 C 438.18 133.55 423.26 132.95 408.42 133.67 M 625.40 133.62 C 620.64 134.55 616.07 137.27 613.32 141.31 C 605.79 153.27 599.11 165.73 591.95 177.91 C 589.54 182.28 586.72 186.81 586.82 191.99 C 587.10 196.25 589.46 199.95 591.38 203.64 C 598.57 216.09 605.68 228.58 613.19 240.84 C 616.28 245.76 622.40 247.64 627.95 247.63 C 643.27 247.74 658.61 247.88 673.93 247.53 C 679.47 247.35 684.90 244.66 687.73 239.77 C 693.50 229.57 699.57 219.53 705.33 209.32 C 707.99 204.56 711.17 199.98 712.70 194.69 C 714.33 189.16 711.35 183.82 708.75 179.14 C 701.88 167.32 695.17 155.41 688.41 143.53 C 684.64 137.24 677.49 132.91 670.06 133.34 C 655.18 133.56 640.26 132.99 625.40 133.62 M 842.40 133.60 C 837.84 134.42 833.40 136.81 830.49 140.44 C 824.76 148.94 820.45 158.30 814.94 166.94 C 811.48 173.15 807.57 179.12 804.51 185.54 C 803.11 189.80 803.10 194.79 805.25 198.82 C 812.27 211.36 819.85 223.57 826.91 236.09 C 828.71 238.89 830.11 242.10 832.76 244.23 C 836.01 246.49 840.00 247.56 843.94 247.61 C 858.98 247.77 874.02 247.78 889.06 247.62 C 893.23 247.52 897.60 246.54 900.99 244.00 C 904.71 240.14 906.89 235.13 909.62 230.58 C 915.38 220.99 920.70 211.14 926.62 201.63 C 928.89 198.05 930.34 193.73 929.48 189.47 C 928.96 183.76 925.34 179.16 922.61 174.36 C 916.34 163.90 910.70 153.07 904.37 142.66 C 900.89 136.69 893.91 133.08 887.06 133.34 C 872.17 133.55 857.26 133.03 842.40 133.60 M 1058.40 133.66 C 1054.77 134.34 1051.53 136.35 1048.71 138.64 C 1045.21 142.40 1043.16 147.18 1040.53 151.52 C 1036.22 158.33 1032.82 165.66 1028.47 172.45 C 1026.38 176.28 1023.83 179.85 1021.92 183.78 C 1019.84 189.54 1020.01 196.39 1023.40 201.63 C 1029.51 211.57 1035.08 221.82 1041.13 231.80 C 1043.55 235.97 1045.55 240.51 1049.00 243.97 C 1052.10 246.34 1056.00 247.59 1059.91 247.59 C 1075.29 247.80 1090.68 247.78 1106.07 247.60 C 1111.58 247.56 1117.69 245.51 1120.45 240.38 C 1128.66 226.59 1136.83 212.78 1144.75 198.82 C 1146.32 196.16 1146.55 192.99 1146.39 189.97 C 1146.23 184.85 1142.73 180.78 1140.56 176.38 C 1133.88 165.34 1127.79 153.95 1121.10 142.91 C 1117.66 136.52 1110.20 132.82 1103.04 133.34 C 1088.16 133.59 1073.25 132.96 1058.40 133.66 M 555.19 197.31 C 544.44 197.52 533.69 197.45 522.95 197.41 C 518.17 197.36 513.03 198.15 509.22 201.23 C 503.78 206.48 500.79 213.57 496.98 219.96 C 492.44 227.76 488.06 235.65 483.37 243.36 C 479.52 249.65 479.47 258.22 483.57 264.41 C 490.14 275.57 496.53 286.86 502.96 298.11 C 505.01 301.27 507.12 304.52 510.00 306.99 C 514.06 309.75 519.22 310.04 523.99 310.13 C 535.32 310.11 546.66 310.08 558.00 310.14 C 562.92 310.10 568.11 309.95 572.55 307.58 C 575.66 305.31 577.96 302.10 579.83 298.77 C 585.77 288.70 591.68 278.61 597.43 268.42 C 600.41 263.45 603.76 257.97 603.12 251.93 C 601.61 246.84 600.48 241.32 596.79 237.27 C 589.45 226.66 584.18 214.74 576.87 204.12 C 572.06 197.18 562.77 197.07 555.19 197.31 M 745.19 197.32 C 740.06 197.31 734.73 197.08 729.85 198.93 C 725.44 200.46 722.59 204.50 720.33 208.36 C 714.71 218.35 708.96 228.28 703.02 238.09 C 700.02 241.48 697.96 245.58 697.33 250.10 C 695.67 255.66 698.33 261.21 701.09 265.92 C 705.32 273.03 709.14 280.38 713.61 287.35 C 717.48 293.45 720.27 300.34 725.26 305.67 C 728.69 309.46 734.20 309.86 738.98 310.11 C 750.65 310.15 762.32 310.06 774.00 310.14 C 779.61 310.07 785.87 310.11 790.56 306.54 C 794.97 302.69 797.43 297.23 800.33 292.25 C 806.53 281.79 812.32 271.08 818.63 260.68 C 820.73 254.83 820.32 247.68 816.28 242.72 C 809.82 231.78 803.42 220.80 797.28 209.68 C 795.40 206.67 793.56 203.52 790.86 201.16 C 786.90 198.30 781.86 197.31 777.05 197.40 C 766.43 197.45 755.81 197.52 745.19 197.32 M 84.42 197.71 C 78.93 198.31 74.20 201.76 71.46 206.49 C 65.13 217.49 58.75 228.46 52.32 239.41 C 49.33 244.05 46.60 249.31 46.84 254.98 C 47.59 261.44 51.78 266.66 54.75 272.22 C 59.73 281.48 65.59 290.21 70.56 299.46 C 72.91 303.29 75.72 307.59 80.31 308.84 C 84.42 310.08 88.75 310.14 93.01 310.14 C 104.01 310.08 115.00 310.10 126.00 310.15 C 130.76 310.05 135.92 309.76 139.99 307.01 C 144.61 303.04 147.39 297.48 150.35 292.27 C 156.50 281.77 162.39 271.11 168.66 260.69 C 170.26 256.20 170.33 250.86 168.54 246.42 C 160.34 233.16 152.95 219.40 144.93 206.03 C 141.48 199.65 133.95 197.07 127.05 197.40 C 112.84 197.69 98.60 197.03 84.42 197.71 M 301.42 197.68 C 297.26 198.33 293.01 199.95 290.37 203.39 C 285.90 209.16 282.99 215.92 279.12 222.08 C 274.20 231.07 268.22 239.52 263.97 248.87 C 261.30 255.44 265.55 261.55 267.85 267.46 C 276.13 278.46 281.69 291.24 289.33 302.68 C 291.35 305.34 293.73 308.13 297.15 308.88 C 307.59 311.49 318.38 309.83 329.00 310.22 C 337.15 309.95 345.55 311.13 353.46 308.64 C 357.08 307.62 359.45 304.43 361.49 301.49 C 366.63 293.18 371.20 284.55 376.21 276.17 C 379.38 270.69 382.87 265.38 385.60 259.65 C 387.57 255.38 387.10 250.24 384.85 246.17 C 378.48 234.33 371.08 223.09 364.73 211.24 C 362.26 206.91 359.86 202.07 355.15 199.78 C 348.98 196.34 341.72 197.65 335.00 197.44 C 323.81 197.62 312.59 197.08 301.42 197.68 M 951.43 197.67 C 947.26 198.29 943.05 199.96 940.38 203.37 C 936.24 208.77 933.32 214.98 929.86 220.82 C 925.03 229.60 919.41 237.93 914.83 246.85 C 912.45 251.44 912.65 257.19 915.36 261.60 C 921.76 273.14 928.71 284.38 935.11 295.93 C 937.72 300.16 940.06 304.89 944.32 307.74 C 948.20 309.77 952.69 310.07 957.00 310.13 C 967.00 310.13 977.00 310.06 987.01 310.13 C 992.80 310.20 998.84 310.51 1004.35 308.34 C 1007.06 307.31 1008.97 304.96 1010.67 302.70 C 1016.39 294.22 1020.61 284.80 1026.57 276.48 C 1028.58 273.13 1029.99 269.45 1032.09 266.15 C 1034.22 262.38 1036.96 258.54 1036.82 254.01 C 1037.00 247.89 1032.87 242.95 1030.16 237.81 C 1023.54 227.29 1017.83 216.23 1011.30 205.66 C 1007.84 199.65 1000.69 197.10 994.05 197.41 C 979.85 197.63 965.62 197.11 951.43 197.67 M 1167.47 197.75 C 1161.43 198.46 1156.73 202.69 1153.89 207.84 C 1147.19 219.48 1140.61 231.18 1133.77 242.72 C 1129.79 248.44 1128.91 256.40 1132.50 262.52 C 1137.37 270.71 1141.99 279.05 1146.81 287.28 C 1150.71 293.61 1153.55 300.75 1158.94 306.04 C 1163.82 310.36 1170.88 310.08 1177.00 310.14 C 1189.89 309.82 1202.82 310.64 1215.69 309.72 C 1221.78 309.49 1226.20 304.93 1229.08 299.98 C 1235.06 289.66 1241.30 279.48 1247.09 269.04 C 1249.81 264.37 1252.89 259.56 1253.24 254.01 C 1253.28 249.90 1251.45 246.09 1249.52 242.58 C 1243.56 232.48 1237.73 222.32 1231.86 212.17 C 1229.38 207.83 1227.03 203.09 1222.78 200.21 C 1216.50 196.43 1208.96 197.56 1202.00 197.44 C 1190.49 197.66 1178.94 197.01 1167.47 197.75 M 190.32 260.28 C 186.59 260.79 182.80 262.33 180.58 265.52 C 176.10 271.95 172.78 279.08 168.68 285.74 C 164.11 292.93 159.98 300.37 155.80 307.79 C 152.61 312.92 152.82 319.91 156.03 324.99 C 163.51 338.43 171.46 351.60 179.08 364.96 C 181.09 368.96 185.01 371.42 188.98 373.17 C 192.11 374.71 195.68 373.79 199.00 373.88 C 212.02 373.80 225.04 373.87 238.06 373.87 C 241.35 373.95 244.66 373.27 247.51 371.57 C 252.97 368.99 255.38 363.09 258.21 358.16 C 264.41 347.67 270.26 336.97 276.53 326.52 C 280.14 320.93 280.35 313.38 277.47 307.44 C 270.29 294.72 262.47 282.37 255.45 269.56 C 253.59 266.58 251.72 263.15 248.30 261.76 C 241.87 259.09 234.76 259.97 227.99 259.74 C 215.44 259.89 202.83 259.28 190.32 260.28 M 405.37 260.55 C 397.89 261.40 394.91 269.12 391.66 274.82 C 385.52 285.01 379.78 295.44 373.55 305.58 C 369.48 311.98 369.53 320.88 373.84 327.15 C 380.07 337.33 385.67 347.88 391.78 358.12 C 394.66 363.04 396.99 369.03 402.48 371.60 C 405.34 373.25 408.65 373.97 411.95 373.88 C 425.98 373.84 440.01 373.83 454.03 373.88 C 460.45 374.31 467.25 371.24 470.54 365.60 C 478.69 351.41 487.24 337.45 494.95 323.00 C 497.36 318.03 496.86 311.80 493.89 307.17 C 488.33 297.44 482.91 287.62 476.88 278.19 C 474.32 273.74 472.11 269.05 468.98 264.96 C 466.00 260.98 460.68 260.18 456.05 259.88 C 442.37 259.62 428.69 259.71 415.01 259.78 C 411.78 259.79 408.53 259.87 405.37 260.55 M 619.33 261.04 C 613.63 263.78 611.25 270.08 608.10 275.14 C 601.54 286.56 594.39 297.67 588.47 309.45 C 585.54 314.76 587.15 321.00 590.04 325.95 C 597.38 339.20 604.93 352.34 612.70 365.34 C 615.83 370.56 621.81 374.04 627.94 373.84 C 642.65 373.87 657.36 373.84 672.07 373.88 C 678.75 374.10 684.83 369.79 688.22 364.27 C 694.87 352.27 701.89 340.48 708.58 328.51 C 710.64 324.57 713.03 320.54 713.17 315.98 C 713.01 311.66 710.73 307.85 708.83 304.10 C 702.19 292.47 695.22 281.02 688.70 269.31 C 686.86 266.38 684.67 263.55 681.88 261.46 C 678.50 259.94 674.63 260.18 671.01 259.88 C 657.68 259.61 644.34 259.71 631.00 259.80 C 627.09 259.90 623.10 259.93 619.33 261.04 M 839.34 260.41 C 835.93 261.00 832.58 262.59 830.61 265.52 C 826.13 271.96 822.74 279.05 818.67 285.73 C 814.11 292.92 810.00 300.38 805.81 307.78 C 802.74 312.69 802.76 319.38 805.69 324.35 C 812.97 337.61 820.94 350.47 828.30 363.69 C 831.20 369.53 837.28 373.94 843.94 373.82 C 858.64 373.90 873.35 373.82 888.05 373.87 C 894.43 374.05 901.06 370.88 904.18 365.18 C 911.94 352.20 919.02 338.81 926.93 325.92 C 929.26 322.08 929.80 317.37 929.21 312.99 C 928.64 308.32 925.69 304.51 923.46 300.53 C 916.71 289.25 910.20 277.82 903.51 266.52 C 900.71 261.32 894.44 260.08 889.05 259.85 C 874.70 259.64 860.34 259.71 845.99 259.82 C 843.76 259.86 841.52 259.97 839.34 260.41 M 1056.32 260.39 C 1050.83 260.79 1046.90 264.93 1044.52 269.55 C 1039.64 278.86 1033.82 287.62 1028.71 296.80 C 1025.33 303.22 1019.82 309.23 1020.59 317.01 C 1020.41 323.33 1024.74 328.19 1027.55 333.44 C 1032.46 341.86 1037.21 350.36 1042.12 358.79 C 1044.81 363.54 1047.29 369.07 1052.49 371.59 C 1055.33 373.29 1058.65 373.94 1061.94 373.88 C 1076.31 373.84 1090.68 373.83 1105.04 373.89 C 1111.69 374.25 1118.34 370.26 1121.32 364.32 C 1128.90 350.93 1136.95 337.79 1144.30 324.26 C 1147.23 319.34 1147.21 312.73 1144.18 307.86 C 1138.89 298.23 1133.36 288.73 1127.58 279.40 C 1124.72 274.58 1122.39 269.43 1118.99 264.96 C 1115.70 260.76 1110.00 260.03 1105.04 259.85 C 1092.69 259.69 1080.35 259.66 1068.00 259.78 C 1064.10 259.82 1060.17 259.70 1056.32 260.39 M 322.18 323.45 C 315.45 323.62 308.73 323.59 302.01 323.59 C 297.16 323.38 292.75 326.11 289.61 329.59 C 286.18 334.32 283.62 339.59 280.57 344.56 C 275.16 354.09 269.39 363.42 264.15 373.06 C 262.45 376.09 262.53 379.69 262.76 383.05 C 263.08 387.80 266.30 391.57 268.32 395.70 C 274.53 406.16 280.59 416.72 286.66 427.27 C 289.67 432.84 295.29 437.84 302.00 437.43 C 316.33 437.50 330.66 437.39 344.99 437.48 C 349.01 437.45 353.50 437.57 356.74 434.79 C 361.27 431.78 363.70 426.76 366.34 422.20 C 372.81 410.19 380.44 398.83 386.55 386.63 C 387.93 381.81 387.90 376.17 385.16 371.80 C 377.95 359.10 370.62 346.47 363.22 333.87 C 360.24 328.33 354.63 323.40 348.01 323.61 C 339.40 323.55 330.79 323.65 322.18 323.45 M 980.17 323.45 C 972.78 323.58 965.38 323.66 957.99 323.58 C 953.27 323.60 948.08 323.08 944.01 326.00 C 938.83 328.92 936.41 334.59 933.48 339.45 C 927.53 350.12 921.02 360.47 915.15 371.19 C 912.03 376.11 911.76 382.70 914.10 387.97 C 919.89 398.98 926.64 409.43 932.64 420.32 C 935.73 425.68 938.38 431.76 943.82 435.18 C 947.34 437.72 951.88 437.45 956.00 437.48 C 970.34 437.36 984.68 437.56 999.01 437.39 C 1006.46 437.33 1011.65 430.95 1014.81 424.89 C 1021.59 412.41 1029.31 400.46 1035.95 387.90 C 1037.40 385.17 1037.42 381.99 1037.33 378.97 C 1037.27 373.82 1033.74 369.73 1031.56 365.34 C 1025.29 354.66 1019.11 343.93 1012.84 333.26 C 1009.80 327.60 1003.67 323.14 997.05 323.56 C 991.42 323.71 985.80 323.46 980.17 323.45 M 80.40 324.44 C 75.96 326.27 72.23 329.73 70.01 333.99 C 64.64 343.87 58.46 353.28 53.12 363.19 C 50.00 368.72 45.86 374.34 46.11 381.00 C 46.03 385.33 48.14 389.23 50.05 392.97 C 57.00 405.01 64.10 416.96 71.05 428.99 C 74.14 433.55 79.14 437.84 84.98 437.48 C 100.66 437.40 116.34 437.48 132.02 437.45 C 138.66 437.74 143.72 432.18 146.99 427.01 C 153.44 415.52 159.98 404.07 166.74 392.74 C 171.78 385.44 171.59 374.86 166.26 367.76 C 159.52 356.43 153.13 344.89 146.46 333.53 C 143.28 328.12 137.62 323.34 131.02 323.66 C 116.68 323.61 102.34 323.70 88.00 323.62 C 85.46 323.69 82.82 323.53 80.40 324.44 M 513.45 324.49 C 508.73 326.42 505.27 330.42 502.77 334.74 C 495.96 346.89 488.80 358.83 482.00 370.99 C 478.80 377.11 479.08 384.65 482.29 390.71 C 486.95 399.31 492.09 407.64 496.89 416.15 C 499.87 421.40 502.18 427.14 506.27 431.66 C 509.28 434.92 513.30 437.82 517.97 437.48 C 533.65 437.39 549.34 437.51 565.02 437.42 C 570.57 437.62 575.48 433.93 578.56 429.60 C 585.62 418.21 591.92 406.37 598.83 394.88 C 601.16 390.55 603.91 386.08 603.91 381.01 C 604.17 374.86 600.51 369.57 597.63 364.44 C 591.67 353.76 585.49 343.20 579.19 332.72 C 576.17 327.39 570.32 323.28 564.01 323.66 C 549.68 323.61 535.35 323.70 521.01 323.62 C 518.48 323.69 515.85 323.55 513.45 324.49 M 730.39 324.41 C 721.92 327.53 718.88 336.62 714.57 343.68 C 710.44 349.71 707.07 356.19 703.48 362.54 C 700.68 367.48 697.37 372.37 696.28 378.05 C 695.08 384.88 699.00 391.06 702.23 396.73 C 708.05 406.87 714.13 416.86 719.88 427.05 C 722.85 432.58 728.35 437.58 734.98 437.43 C 749.32 437.51 763.66 437.38 778.00 437.48 C 781.60 437.47 785.49 437.65 788.67 435.63 C 793.59 432.91 796.60 427.92 799.21 423.12 C 805.47 411.84 811.96 400.70 818.55 389.62 C 820.58 385.41 820.57 380.50 819.98 375.96 C 819.56 371.86 816.68 368.74 814.71 365.32 C 808.87 354.86 802.73 344.57 796.83 334.14 C 793.64 328.47 787.89 323.37 781.02 323.66 C 766.68 323.61 752.35 323.70 738.01 323.62 C 735.46 323.69 732.83 323.56 730.39 324.41 M 1163.46 324.53 C 1159.00 326.40 1155.51 329.98 1153.17 334.15 C 1147.12 344.77 1140.88 355.28 1134.91 365.94 C 1132.86 369.43 1130.42 372.91 1129.88 377.03 C 1129.38 381.16 1129.58 385.58 1131.54 389.34 C 1138.36 401.81 1145.83 413.91 1152.62 426.39 C 1155.91 431.86 1161.08 437.49 1167.98 437.40 C 1183.66 437.52 1199.35 437.41 1215.03 437.46 C 1220.84 437.81 1226.15 433.89 1228.97 429.04 C 1234.37 419.78 1239.74 410.49 1245.12 401.22 C 1248.30 395.31 1252.62 389.72 1253.78 382.96 C 1254.95 375.83 1250.55 369.71 1247.22 363.86 C 1241.89 353.94 1235.86 344.44 1230.33 334.64 C 1227.46 328.85 1221.81 323.65 1215.03 323.69 C 1200.69 323.57 1186.35 323.72 1172.01 323.62 C 1169.14 323.68 1166.17 323.47 1163.46 324.53 M 190.49 387.70 C 185.88 389.06 181.42 391.76 179.18 396.17 C 171.44 409.47 163.70 422.78 156.13 436.17 C 154.50 438.82 153.41 441.83 153.58 444.98 C 153.21 451.82 157.91 457.27 161.15 462.83 C 167.41 473.28 173.39 483.91 179.66 494.36 C 182.46 499.44 188.53 501.22 193.98 501.35 C 208.98 501.55 223.99 501.53 239.00 501.36 C 243.10 501.14 247.59 500.58 250.88 497.88 C 254.79 493.87 256.94 488.58 259.88 483.89 C 264.46 476.13 268.85 468.26 273.55 460.57 C 275.53 457.06 278.11 453.73 278.90 449.69 C 280.00 444.60 279.43 438.99 276.51 434.58 C 270.05 424.23 264.37 413.43 258.14 402.94 C 255.99 399.15 253.92 395.24 251.03 391.95 C 247.15 388.75 242.09 387.01 237.06 387.15 C 223.36 387.19 209.65 387.16 195.95 387.18 C 194.12 387.22 192.27 387.24 190.49 387.70 M 408.36 387.50 C 403.86 388.52 399.11 390.61 396.75 394.81 C 388.69 407.58 381.88 421.09 373.89 433.90 C 369.40 440.40 369.49 449.65 373.85 456.20 C 380.06 466.37 385.87 476.77 391.94 487.02 C 394.21 490.96 396.18 495.29 399.67 498.33 C 403.59 500.85 408.44 501.34 413.01 501.39 C 425.01 501.50 437.01 501.53 449.01 501.44 C 455.10 501.61 461.89 501.87 467.06 498.08 C 471.35 494.41 473.23 488.84 476.26 484.22 C 481.95 475.70 486.81 466.67 491.88 457.78 C 494.08 454.17 496.44 450.38 496.52 446.00 C 497.11 440.14 493.25 435.25 490.73 430.31 C 485.85 422.98 482.25 414.89 477.46 407.50 C 474.41 402.56 471.95 397.22 468.32 392.66 C 464.35 388.72 458.57 386.86 453.03 387.14 C 438.15 387.43 423.22 386.71 408.36 387.50 M 624.40 387.60 C 620.17 388.63 616.09 390.93 613.65 394.63 C 605.55 407.10 598.74 420.34 591.17 433.12 C 588.77 437.60 585.81 442.57 587.15 447.85 C 588.84 454.14 592.74 459.50 595.83 465.15 C 601.58 475.05 607.25 485.02 613.25 494.77 C 616.36 499.69 622.47 501.36 627.98 501.37 C 643.32 501.48 658.67 501.65 674.01 501.26 C 679.49 501.09 684.82 498.48 687.65 493.67 C 693.95 482.66 700.37 471.71 706.73 460.72 C 709.06 456.63 711.71 452.58 712.85 447.96 C 714.16 442.63 711.29 437.59 708.83 433.09 C 701.65 420.90 694.95 408.43 687.67 396.31 C 684.25 390.59 677.74 386.96 671.06 387.15 C 657.36 387.17 643.66 387.19 629.96 387.15 C 628.09 387.17 626.22 387.22 624.40 387.60 M 840.50 387.72 C 835.83 388.98 831.43 391.77 829.19 396.19 C 821.45 409.48 813.69 422.76 806.12 436.14 C 803.41 440.37 802.74 445.89 804.26 450.65 C 811.45 463.99 819.56 476.82 827.01 490.03 C 828.99 493.22 830.65 496.93 834.03 498.91 C 837.37 500.72 841.20 501.54 844.99 501.51 C 859.32 501.58 873.66 501.46 888.00 501.39 C 892.45 501.29 897.24 500.66 900.89 497.89 C 904.17 494.60 906.13 490.27 908.44 486.30 C 914.41 476.29 920.03 466.08 926.20 456.20 C 930.55 449.63 930.51 440.42 926.12 433.88 C 918.26 421.28 911.53 408.03 903.66 395.45 C 900.68 389.89 894.08 387.32 888.05 387.17 C 874.36 387.15 860.67 387.20 846.98 387.16 C 844.80 387.18 842.61 387.21 840.50 387.72 M 1058.37 387.52 C 1053.60 388.55 1048.75 390.94 1046.35 395.40 C 1039.67 406.15 1033.77 417.36 1027.31 428.24 C 1024.26 433.44 1020.20 438.58 1020.59 444.99 C 1020.04 451.93 1024.75 457.36 1027.92 463.04 C 1034.29 473.41 1039.99 484.19 1046.41 494.53 C 1049.22 499.73 1055.52 501.21 1060.98 501.36 C 1075.99 501.52 1091.00 501.58 1106.01 501.31 C 1110.72 501.08 1116.06 500.13 1119.08 496.10 C 1122.07 491.98 1124.42 487.42 1127.00 483.03 C 1132.93 473.22 1138.69 463.29 1144.31 453.29 C 1147.42 448.11 1147.09 441.19 1143.87 436.14 C 1136.30 422.75 1128.64 409.41 1120.80 396.19 C 1117.51 389.80 1109.95 386.76 1103.04 387.14 C 1088.15 387.43 1073.22 386.69 1058.37 387.52 M 84.39 451.56 C 79.12 452.13 74.47 455.25 71.79 459.80 C 65.79 470.10 59.54 480.26 53.77 490.71 C 50.69 496.08 46.72 501.53 46.78 508.01 C 47.31 515.37 52.30 521.20 55.58 527.51 C 61.42 537.04 66.64 546.96 72.65 556.38 C 75.84 561.59 82.08 563.76 87.95 563.75 C 100.98 563.75 114.01 563.68 127.04 563.78 C 132.11 563.92 137.45 562.71 141.44 559.44 C 145.59 555.33 147.97 549.89 150.98 544.97 C 156.00 536.05 161.11 527.18 166.38 518.41 C 170.90 512.44 171.16 503.37 166.76 497.27 C 158.94 484.90 152.57 471.67 144.57 459.41 C 141.69 454.62 136.45 451.78 130.95 451.38 C 123.30 450.92 115.63 451.59 107.99 451.13 C 100.13 450.44 92.23 451.14 84.39 451.56 M 300.44 451.64 C 296.10 452.47 291.88 454.58 289.42 458.39 C 283.74 466.89 279.28 476.15 273.87 484.83 C 270.60 490.57 266.91 496.11 264.14 502.12 C 261.94 507.26 263.67 512.97 266.50 517.49 C 271.24 526.28 276.81 534.59 281.55 543.38 C 284.34 548.22 286.82 553.31 290.31 557.70 C 293.75 562.07 299.55 563.80 304.93 563.76 C 316.29 563.73 327.64 563.70 338.99 563.75 C 344.01 563.74 349.28 564.22 353.96 562.02 C 359.97 559.50 362.73 553.16 365.90 547.93 C 371.81 536.93 378.63 526.46 384.58 515.49 C 387.19 511.07 387.71 505.32 385.25 500.72 C 382.16 494.92 378.83 489.26 375.42 483.64 C 370.27 475.36 366.11 466.48 360.56 458.45 C 357.22 453.37 350.93 451.15 345.06 451.22 C 332.37 451.24 319.68 451.30 306.99 451.21 C 304.80 451.22 302.59 451.22 300.44 451.64 M 517.39 451.59 C 511.58 452.27 507.02 456.28 504.20 461.19 C 497.46 472.52 491.12 484.08 484.44 495.44 C 479.55 501.96 479.12 511.50 483.62 518.33 C 490.98 530.41 497.51 542.99 504.99 554.99 C 508.20 560.66 514.51 563.79 520.94 563.74 C 534.31 563.77 547.68 563.68 561.05 563.78 C 566.47 563.89 572.55 562.48 576.06 558.01 C 579.29 554.10 581.43 549.45 584.25 545.25 C 589.19 536.28 594.38 527.44 599.58 518.62 C 601.54 515.04 603.28 511.13 603.20 506.98 C 603.04 502.68 601.03 498.75 598.85 495.14 C 591.63 483.27 585.24 470.91 577.81 459.18 C 574.65 454.11 568.83 451.35 562.95 451.27 C 550.64 451.15 538.32 451.34 526.01 451.22 C 523.13 451.21 520.23 451.10 517.39 451.59 M 734.38 451.53 C 728.83 452.14 724.11 455.65 721.38 460.43 C 715.26 471.00 709.06 481.51 702.99 492.10 C 700.19 496.68 697.10 501.47 696.81 507.00 C 696.67 512.66 699.80 517.62 702.64 522.28 C 708.96 533.29 715.40 544.23 721.80 555.20 C 725.43 561.42 732.93 564.58 739.95 563.94 C 752.98 563.45 766.03 563.88 779.06 563.75 C 785.09 563.61 791.63 561.16 794.66 555.62 C 802.91 542.11 810.23 528.03 818.72 514.67 C 820.34 509.25 820.62 502.66 817.12 497.89 C 809.37 485.20 802.35 472.07 794.73 459.31 C 791.17 453.25 783.70 450.95 777.03 451.20 C 762.82 451.51 748.57 450.83 734.38 451.53 M 950.44 451.61 C 944.70 452.45 940.02 456.35 937.43 461.43 C 930.28 473.93 922.93 486.31 915.77 498.80 C 912.82 503.31 912.29 509.28 914.78 514.12 C 920.04 524.60 926.73 534.27 932.25 544.61 C 935.33 549.80 937.83 555.54 942.27 559.76 C 946.01 562.93 951.17 563.82 955.96 563.77 C 968.65 563.72 981.35 563.70 994.04 563.80 C 999.50 563.88 1005.51 562.50 1009.24 558.23 C 1012.82 553.94 1015.29 548.86 1018.11 544.06 C 1023.43 534.16 1029.66 524.77 1034.93 514.82 C 1037.36 510.56 1037.51 505.07 1035.24 500.72 C 1032.92 496.17 1030.23 491.83 1027.63 487.45 C 1021.91 478.04 1016.92 468.21 1010.98 458.94 C 1007.62 453.62 1001.17 451.12 995.07 451.24 C 983.05 451.20 971.03 451.31 959.01 451.22 C 956.14 451.23 953.26 451.10 950.44 451.61 M 1167.39 451.61 C 1161.89 452.30 1157.28 455.87 1154.56 460.60 C 1147.17 472.92 1140.40 485.61 1132.91 497.88 C 1128.97 503.75 1129.34 511.93 1133.30 517.70 C 1140.78 529.98 1147.50 542.72 1154.97 555.01 C 1158.17 560.66 1164.55 563.79 1170.93 563.74 C 1184.64 563.74 1198.35 563.74 1212.06 563.75 C 1217.96 563.79 1224.08 561.48 1227.39 556.38 C 1233.43 546.97 1238.67 537.06 1244.41 527.46 C 1247.41 521.70 1251.75 516.45 1252.98 509.93 C 1253.97 504.39 1251.22 499.13 1248.48 494.53 C 1242.50 484.47 1236.78 474.27 1230.84 464.19 C 1228.72 460.48 1226.49 456.57 1222.86 454.14 C 1218.07 451.48 1212.45 450.48 1207.01 450.87 C 1193.83 451.92 1180.56 450.57 1167.39 451.61 M 189.34 514.23 C 183.31 514.93 179.55 519.97 176.99 524.97 C 170.20 537.13 162.77 548.90 156.02 561.09 C 152.32 566.82 152.92 574.61 156.78 580.12 C 164.11 592.82 171.47 605.50 178.78 618.21 C 181.81 624.08 188.32 627.95 194.94 627.68 C 209.31 627.64 223.68 627.63 238.05 627.68 C 244.05 627.67 250.68 625.09 253.68 619.60 C 261.45 606.95 268.26 593.73 276.11 581.11 C 280.54 574.63 280.63 565.32 276.19 558.83 C 268.40 546.18 261.27 533.14 253.60 520.44 C 250.84 515.19 244.46 513.78 239.01 513.63 C 224.00 513.49 208.98 513.43 193.97 513.67 C 192.41 513.72 190.85 513.87 189.34 514.23 M 405.34 514.29 C 398.17 515.26 395.11 522.40 391.97 527.96 C 386.02 538.02 380.27 548.20 374.18 558.18 C 369.89 564.41 368.96 573.29 373.17 579.80 C 381.06 592.70 388.10 606.09 395.96 619.00 C 398.97 624.73 405.60 627.88 411.94 627.68 C 426.65 627.59 441.36 627.68 456.07 627.64 C 458.99 627.70 461.82 626.78 464.33 625.32 C 470.37 622.20 472.53 615.26 476.00 609.87 C 481.47 601.24 486.11 592.12 491.36 583.36 C 493.53 579.13 496.73 575.02 496.41 570.01 C 496.85 564.17 492.92 559.51 490.33 554.67 C 486.06 547.85 482.56 540.58 478.17 533.84 C 475.03 528.93 472.57 523.58 469.03 518.93 C 465.76 514.68 460.05 513.67 455.00 513.63 C 440.66 513.56 426.32 513.29 411.99 513.61 C 409.76 513.66 407.50 513.73 405.34 514.29 M 622.32 514.28 C 616.93 515.04 613.23 519.38 610.99 524.01 C 604.24 535.02 598.00 546.33 591.45 557.47 C 588.85 562.31 585.60 567.81 587.39 573.49 C 589.83 581.07 594.87 587.40 598.25 594.54 C 600.51 599.47 604.01 603.67 606.44 608.51 C 608.66 612.28 610.93 616.03 613.25 619.76 C 616.40 624.96 622.54 627.73 628.49 627.79 C 643.29 627.70 658.10 627.36 672.89 627.93 C 676.59 627.76 680.01 626.00 683.03 623.98 C 688.15 619.78 690.40 613.31 694.01 607.95 C 695.29 605.85 697.18 604.20 698.38 602.06 C 701.36 591.78 709.26 583.79 712.60 573.65 C 714.42 567.90 711.17 562.31 708.55 557.39 C 701.39 545.21 694.45 532.89 687.23 520.75 C 684.23 515.90 678.52 513.73 673.02 513.66 C 658.01 513.43 643.00 513.49 627.99 513.64 C 626.08 513.68 624.16 513.81 622.32 514.28 M 838.39 514.37 C 835.76 515.07 833.13 516.21 831.38 518.38 C 827.57 522.83 825.23 528.27 822.25 533.26 C 816.50 543.17 810.45 552.90 804.98 562.97 C 803.20 566.40 803.24 570.50 803.94 574.21 C 805.07 577.69 807.32 580.67 808.98 583.91 C 815.77 595.51 822.29 607.28 829.20 618.81 C 832.19 624.45 838.60 627.91 844.93 627.66 C 858.29 627.67 871.65 627.60 885.01 627.67 C 889.23 627.79 893.69 627.73 897.43 625.47 C 901.56 623.71 903.72 619.59 905.97 615.98 C 913.04 603.71 919.87 591.31 927.18 579.18 C 930.47 573.54 930.50 566.37 927.25 560.71 C 919.81 548.13 912.38 535.53 905.14 522.83 C 903.59 520.45 902.11 517.86 899.69 516.27 C 896.47 514.39 892.68 513.75 889.00 513.64 C 876.67 513.51 864.34 513.43 852.01 513.60 C 847.47 513.71 842.80 512.98 838.39 514.37 M 1056.32 514.16 C 1053.34 514.82 1050.13 515.75 1048.15 518.23 C 1044.86 522.13 1042.71 526.79 1040.09 531.12 C 1034.45 540.81 1028.86 550.53 1023.07 560.13 C 1020.58 564.25 1020.16 569.35 1020.95 574.02 C 1021.57 578.62 1024.85 582.14 1026.94 586.12 C 1033.59 597.18 1039.51 608.66 1046.33 619.61 C 1049.35 625.08 1055.89 627.82 1061.94 627.68 C 1074.62 627.63 1087.31 627.63 1100.00 627.66 C 1104.59 627.63 1109.53 628.16 1113.67 625.69 C 1117.02 624.21 1119.44 621.34 1121.20 618.21 C 1128.88 605.17 1136.37 592.02 1143.91 578.91 C 1147.26 573.62 1147.37 566.32 1144.00 561.02 C 1138.52 551.79 1133.37 542.38 1127.73 533.25 C 1124.56 528.10 1122.09 522.43 1118.11 517.84 C 1112.18 512.25 1103.39 513.91 1095.98 513.56 C 1082.77 513.69 1069.48 512.98 1056.32 514.16 M 80.34 578.24 C 75.80 580.04 72.11 583.64 69.89 587.96 C 64.50 597.51 58.81 606.89 53.39 616.42 C 50.46 621.32 47.18 626.31 46.23 632.04 C 45.10 639.13 49.41 645.34 52.75 651.19 C 58.29 661.25 64.46 670.95 70.04 681.00 C 73.01 686.88 79.14 691.74 85.99 691.34 C 100.33 691.36 114.66 691.29 128.99 691.37 C 132.47 691.39 136.20 691.29 139.10 689.12 C 145.12 685.65 147.78 678.92 151.20 673.24 C 156.29 664.62 161.17 655.87 166.22 647.23 C 171.64 640.16 171.73 629.56 166.72 622.25 C 160.31 611.27 153.83 600.32 147.71 589.17 C 144.37 583.50 139.16 577.52 132.01 577.60 C 117.68 577.45 103.35 577.62 89.01 577.52 C 86.12 577.59 83.14 577.36 80.34 578.24 M 296.40 578.44 C 291.69 580.42 288.27 584.46 285.91 588.87 C 280.29 599.11 274.29 609.13 268.35 619.18 C 266.12 623.75 262.82 628.00 262.14 633.17 C 262.06 637.17 263.48 641.06 265.54 644.45 C 272.66 656.94 279.80 669.41 287.15 681.75 C 290.15 687.10 295.72 691.51 302.10 691.37 C 318.19 691.52 334.30 691.59 350.39 691.20 C 357.44 690.22 361.88 683.93 365.04 678.14 C 371.56 666.38 378.60 654.91 385.15 643.17 C 387.92 638.59 388.04 632.65 386.20 627.73 C 381.50 618.08 375.40 609.19 370.24 599.78 C 366.97 594.38 364.42 588.51 360.52 583.51 C 357.47 580.39 353.61 577.49 349.02 577.63 C 334.69 577.41 320.35 577.64 306.01 577.52 C 302.80 577.60 299.46 577.30 296.40 578.44 M 514.28 578.12 C 509.14 579.78 505.30 584.08 502.65 588.64 C 496.11 600.38 489.24 611.94 482.62 623.63 C 480.41 627.67 479.18 632.39 479.86 637.01 C 480.42 641.41 482.62 645.33 484.91 649.05 C 490.60 659.33 496.74 669.34 502.39 679.63 C 505.82 685.62 511.49 691.74 518.99 691.33 C 533.99 691.36 549.00 691.31 564.01 691.36 C 569.59 691.73 574.79 688.40 578.04 684.09 C 584.72 673.00 591.29 661.84 597.63 650.56 C 600.50 645.42 604.22 640.14 603.90 633.98 C 603.97 629.14 601.41 624.86 599.19 620.75 C 592.08 608.82 585.49 596.59 578.14 584.80 C 575.07 580.74 570.32 577.37 565.02 577.58 C 551.01 577.46 537.00 577.62 523.00 577.52 C 520.08 577.54 517.13 577.44 514.28 578.12 M 730.34 578.29 C 725.55 580.12 721.83 584.03 719.51 588.53 C 712.63 600.89 705.03 612.85 698.40 625.36 C 695.30 630.89 695.33 637.89 698.44 643.42 C 704.31 654.45 710.87 665.12 717.10 675.96 C 719.75 680.19 721.69 685.14 725.99 688.04 C 728.77 690.37 732.36 691.50 735.98 691.35 C 750.99 691.33 766.01 691.34 781.02 691.34 C 784.12 691.47 787.19 690.60 789.68 688.73 C 794.94 685.50 797.47 679.63 800.49 674.52 C 806.50 664.17 812.32 653.71 818.51 643.47 C 820.53 639.31 820.56 634.45 820.01 629.95 C 819.61 626.09 817.03 623.07 815.19 619.83 C 810.59 611.75 805.92 603.71 801.31 595.65 C 797.94 589.94 795.22 583.29 789.29 579.72 C 786.91 577.92 783.89 577.50 781.00 577.54 C 766.67 577.52 752.34 577.59 738.01 577.51 C 735.44 577.56 732.80 577.46 730.34 578.29 M 946.41 578.46 C 940.43 580.86 937.00 586.60 934.08 592.01 C 928.15 603.26 921.11 613.88 915.10 625.09 C 911.68 630.68 911.71 638.24 915.16 643.82 C 922.24 656.34 929.63 668.68 936.78 681.16 C 939.93 686.98 946.00 691.99 952.96 691.43 C 965.64 691.17 978.32 691.78 991.00 691.37 C 996.03 691.33 1001.64 692.24 1005.98 689.01 C 1010.55 686.56 1012.86 681.80 1015.39 677.53 C 1020.68 668.17 1026.15 658.91 1031.58 649.63 C 1034.02 644.88 1037.44 640.35 1037.91 634.85 C 1037.84 631.14 1036.34 627.64 1034.55 624.46 C 1028.20 612.88 1021.06 601.76 1014.84 590.11 C 1011.59 584.13 1006.46 577.67 999.02 577.60 C 984.68 577.43 970.34 577.63 956.00 577.51 C 952.79 577.56 949.48 577.37 946.41 578.46 M 1163.37 578.38 C 1157.62 580.71 1153.88 585.99 1151.13 591.33 C 1145.07 602.45 1138.33 613.18 1132.26 624.29 C 1128.94 629.95 1128.77 637.34 1131.61 643.22 C 1138.65 655.85 1146.00 668.31 1153.15 680.89 C 1156.42 686.47 1162.09 691.70 1168.98 691.34 C 1183.99 691.35 1199.01 691.32 1214.02 691.35 C 1222.44 691.82 1228.55 684.78 1231.82 677.81 C 1236.85 669.15 1242.12 660.62 1246.88 651.80 C 1250.35 645.76 1254.95 639.43 1253.78 632.05 C 1252.64 625.30 1248.31 619.72 1245.14 613.83 C 1239.54 604.40 1234.27 594.78 1228.54 585.43 C 1225.48 581.07 1220.55 577.45 1215.02 577.58 C 1200.68 577.46 1186.34 577.62 1172.01 577.51 C 1169.12 577.57 1166.13 577.40 1163.37 578.38 M 641.20 640.59 C 637.44 640.57 633.70 640.77 629.96 640.77 C 622.96 640.38 615.83 644.08 612.33 650.19 C 604.76 663.10 597.20 676.02 590.04 689.17 C 588.00 693.04 585.87 697.48 587.21 701.94 C 588.99 708.44 593.06 713.93 596.30 719.75 C 600.97 727.73 605.62 735.72 610.31 743.68 C 612.17 747.01 614.12 750.50 617.34 752.71 C 620.86 754.70 625.02 755.03 628.99 755.17 C 643.00 755.33 657.01 755.33 671.02 755.15 C 674.97 754.99 679.15 754.74 682.65 752.71 C 684.94 751.00 686.84 748.77 688.33 746.33 C 695.19 733.94 702.62 721.87 709.61 709.55 C 711.29 706.25 713.08 702.81 713.17 699.03 C 713.07 694.67 710.81 690.82 708.89 687.05 C 702.10 674.88 694.94 662.92 688.23 650.70 C 684.83 644.94 678.41 641.02 671.71 640.84 C 661.53 640.21 651.37 641.04 641.20 640.59 M 190.37 641.49 C 185.51 642.96 180.94 645.98 178.69 650.67 C 171.30 663.89 163.35 676.78 156.03 690.04 C 152.83 695.12 152.61 702.07 155.80 707.22 C 159.33 713.62 163.04 719.94 166.80 726.21 C 171.71 733.79 175.57 741.99 180.61 749.48 C 183.50 753.84 189.07 754.94 193.95 755.12 C 208.64 755.36 223.34 755.33 238.03 755.16 C 242.41 754.99 247.15 754.48 250.78 751.79 C 254.57 747.97 256.65 742.88 259.38 738.33 C 265.19 728.76 270.70 719.01 276.46 709.42 C 280.61 703.02 280.40 694.13 276.18 687.82 C 270.19 677.79 264.48 667.60 258.58 657.52 C 256.38 653.47 254.33 649.24 251.14 645.86 C 247.25 642.55 242.13 640.75 237.03 640.85 C 224.02 640.82 211.01 640.87 198.00 640.82 C 195.45 640.85 192.85 640.83 190.37 641.49 M 408.30 641.25 C 404.87 641.99 401.59 643.59 398.89 645.83 C 395.63 649.18 393.67 653.49 391.41 657.52 C 385.09 668.19 379.19 679.11 372.72 689.69 C 369.58 695.80 369.87 703.62 373.56 709.44 C 379.18 718.84 384.72 728.29 390.28 737.73 C 393.10 742.49 395.25 747.79 399.22 751.76 C 403.36 755.00 408.97 755.12 414.00 755.18 C 428.02 755.32 442.04 755.36 456.05 755.10 C 460.70 754.85 465.99 754.02 468.98 750.04 C 471.80 746.34 473.91 742.15 476.19 738.11 C 482.41 727.95 488.37 717.62 494.18 707.21 C 497.30 702.32 497.14 695.72 494.30 690.75 C 486.89 676.96 478.71 663.61 470.94 650.03 C 467.67 644.07 460.70 640.68 454.03 640.83 C 441.02 640.83 428.00 640.87 414.99 640.81 C 412.75 640.82 410.50 640.82 408.30 641.25 M 840.33 641.51 C 835.70 642.85 831.35 645.69 829.07 650.06 C 821.16 664.08 812.60 677.74 805.03 691.95 C 802.79 696.72 802.99 702.72 805.81 707.22 C 812.24 719.28 819.89 730.64 826.36 742.68 C 828.50 746.08 830.18 750.01 833.53 752.44 C 837.23 754.72 841.74 755.03 845.98 755.17 C 860.34 755.29 874.70 755.37 889.05 755.11 C 893.08 754.80 897.46 754.31 900.78 751.79 C 904.54 747.95 906.72 742.93 909.40 738.34 C 913.72 731.04 917.95 723.68 922.33 716.41 C 925.58 710.69 930.09 704.98 929.42 698.00 C 929.67 691.94 925.67 687.21 922.83 682.29 C 918.34 674.70 914.22 666.91 909.65 659.37 C 906.95 654.80 904.86 649.75 901.10 645.89 C 897.26 642.50 892.13 640.71 887.01 640.84 C 875.01 640.82 863.00 640.87 851.00 640.83 C 847.44 640.84 843.82 640.69 840.33 641.51 M 1058.30 641.27 C 1053.26 642.39 1048.32 645.13 1045.78 649.79 C 1038.01 663.32 1030.25 676.87 1022.41 690.36 C 1019.60 696.33 1019.96 703.80 1023.58 709.37 C 1029.10 718.58 1034.36 727.94 1039.90 737.14 C 1042.82 741.86 1044.96 747.13 1048.73 751.29 C 1051.94 754.37 1056.71 754.82 1060.95 755.13 C 1075.30 755.38 1089.66 755.31 1104.02 755.16 C 1107.81 755.08 1111.75 754.81 1115.25 753.19 C 1118.72 751.36 1120.61 747.72 1122.55 744.47 C 1129.60 731.96 1137.33 719.84 1144.19 707.21 C 1147.20 702.29 1147.25 695.65 1144.31 690.70 C 1136.69 676.77 1128.43 663.21 1120.54 649.43 C 1116.81 643.14 1109.06 640.31 1102.00 640.82 C 1087.44 641.14 1072.82 640.27 1058.30 641.27 M 331.20 704.61 C 325.80 704.65 320.40 704.96 315.00 704.77 C 308.06 704.87 300.65 704.01 294.25 707.30 C 290.25 710.05 287.97 714.47 285.48 718.49 C 278.97 729.97 272.09 741.26 265.69 752.80 C 262.97 757.15 262.25 762.79 264.53 767.50 C 267.88 774.28 272.00 780.65 275.79 787.20 C 280.59 794.83 284.35 803.08 289.49 810.50 C 292.89 815.51 299.12 817.59 304.95 817.57 C 317.64 817.58 330.34 817.52 343.03 817.60 C 347.27 817.69 351.59 817.13 355.42 815.23 C 359.60 812.84 361.90 808.39 364.36 804.44 C 368.33 797.40 372.18 790.29 376.42 783.42 C 379.66 777.68 383.47 772.23 385.99 766.13 C 387.90 761.17 386.36 755.76 383.59 751.47 C 377.50 740.59 370.93 729.98 364.91 719.07 C 362.14 714.66 359.72 709.49 354.91 706.95 C 347.45 703.67 339.10 705.04 331.20 704.61 M 82.41 705.62 C 75.82 706.63 72.00 712.77 69.06 718.14 C 62.46 729.81 55.32 741.18 48.97 752.99 C 45.94 758.49 46.34 765.20 49.43 770.58 C 55.40 781.20 61.92 791.51 67.77 802.20 C 70.33 806.76 72.85 811.61 77.16 814.78 C 83.48 818.46 91.04 817.38 98.02 817.50 C 106.68 817.73 115.34 817.38 124.00 817.62 C 129.80 817.75 135.99 817.22 140.95 813.93 C 145.54 809.27 148.46 803.29 151.61 797.63 C 155.57 790.04 160.24 782.86 164.36 775.37 C 166.22 771.92 169.24 768.89 169.59 764.82 C 169.87 761.11 170.18 757.06 168.35 753.67 C 160.51 741.05 153.58 727.88 145.92 715.15 C 143.41 711.37 140.58 707.13 135.86 706.05 C 127.75 703.90 119.27 705.23 111.00 704.89 C 101.48 705.21 91.85 704.12 82.41 705.62 M 517.34 705.33 C 510.18 705.68 505.96 711.96 502.60 717.49 C 497.25 727.14 491.53 736.58 486.23 746.26 C 484.32 749.75 481.47 752.89 480.92 756.98 C 480.16 761.68 480.44 766.86 482.98 771.02 C 486.68 777.05 490.10 783.24 493.70 789.33 C 498.24 797.05 501.66 805.56 507.73 812.28 C 510.98 815.99 516.07 817.72 520.92 817.61 C 534.30 817.52 547.68 817.55 561.05 817.60 C 566.19 817.58 571.91 816.43 575.47 812.42 C 578.82 808.93 580.75 804.43 583.36 800.42 C 587.14 793.84 590.73 787.16 594.69 780.69 C 597.69 775.21 601.85 770.15 602.95 763.83 C 603.96 758.83 601.74 753.94 599.33 749.70 C 591.65 737.00 584.91 723.70 576.59 711.41 C 573.28 706.17 566.77 704.98 561.04 704.90 C 550.69 704.80 540.35 704.95 530.00 704.88 C 525.78 704.90 521.52 704.66 517.34 705.33 M 732.42 705.61 C 726.61 706.39 722.95 711.50 720.14 716.14 C 713.39 728.36 705.91 740.16 699.25 752.42 C 697.69 755.63 696.41 759.21 696.94 762.84 C 697.61 767.73 700.15 772.07 702.74 776.19 C 706.57 782.69 710.14 789.36 714.22 795.73 C 717.96 801.90 720.55 809.03 726.07 813.93 C 729.69 816.74 734.45 817.59 738.94 817.59 C 751.64 817.55 764.34 817.53 777.05 817.61 C 781.86 817.71 786.90 816.71 790.84 813.82 C 793.58 811.49 795.41 808.33 797.29 805.32 C 803.46 794.21 809.76 783.17 816.27 772.26 C 820.32 767.31 820.72 760.16 818.68 754.31 C 812.61 744.60 807.25 734.46 801.42 724.60 C 798.17 719.25 795.63 713.33 791.11 708.89 C 787.30 705.53 781.90 705.10 777.05 704.89 C 766.37 704.83 755.68 704.94 745.00 704.87 C 740.80 704.85 736.55 704.73 732.42 705.61 M 950.33 705.39 C 945.19 705.78 941.04 709.19 938.52 713.51 C 931.78 724.53 925.63 735.90 918.91 746.94 C 915.95 752.49 911.52 758.48 913.73 765.12 C 916.20 772.14 920.73 778.19 924.34 784.65 C 929.68 793.10 933.86 802.24 939.51 810.50 C 942.90 815.51 949.12 817.61 954.96 817.58 C 967.30 817.58 979.65 817.50 992.00 817.61 C 998.03 817.82 1004.96 817.01 1009.12 812.13 C 1013.47 806.89 1016.35 800.65 1019.79 794.82 C 1024.63 786.05 1030.16 777.68 1034.83 768.81 C 1037.20 764.51 1037.60 759.01 1035.30 754.61 C 1031.13 746.64 1026.30 739.04 1021.83 731.24 C 1017.70 724.37 1014.25 717.03 1009.39 710.63 C 1004.66 704.35 996.00 704.95 989.00 704.85 C 976.11 705.21 963.17 704.21 950.33 705.39 M 1167.32 705.35 C 1161.09 705.81 1156.61 710.55 1153.73 715.69 C 1147.65 726.31 1141.46 736.87 1135.47 747.53 C 1133.55 750.90 1130.83 754.05 1130.38 758.04 C 1130.03 761.76 1129.98 765.77 1131.92 769.12 C 1138.49 780.25 1145.01 791.41 1151.27 802.72 C 1153.75 807.04 1156.22 811.69 1160.36 814.66 C 1167.81 819.19 1176.78 817.07 1185.00 817.49 C 1195.63 817.19 1206.34 818.29 1216.91 816.98 C 1223.36 816.15 1227.61 810.76 1230.39 805.36 C 1236.90 794.17 1243.30 782.92 1249.87 771.76 C 1252.13 767.67 1254.05 762.88 1252.84 758.16 C 1251.18 751.31 1246.59 745.76 1243.44 739.59 C 1237.87 730.18 1232.76 720.46 1226.54 711.48 C 1222.44 704.88 1213.87 704.80 1206.99 704.84 C 1193.77 705.22 1180.49 704.27 1167.32 705.35 M 190.44 767.69 C 185.86 768.51 181.36 770.96 179.16 775.23 C 171.48 788.50 163.45 801.58 155.92 814.95 C 152.55 820.27 152.83 827.52 156.20 832.78 C 163.58 845.71 171.04 858.59 178.51 871.47 C 181.61 877.45 188.19 881.62 194.98 881.41 C 209.33 881.37 223.67 881.37 238.01 881.41 C 242.94 881.63 247.72 879.54 251.33 876.27 C 255.54 871.58 257.97 865.66 261.36 860.41 C 266.09 851.85 270.89 843.32 276.01 834.99 C 280.35 828.48 280.72 819.26 276.28 812.72 C 270.35 803.49 265.35 793.72 259.60 784.38 C 256.81 779.87 254.72 774.81 250.95 770.99 C 246.97 768.07 241.87 767.23 237.04 767.33 C 221.51 767.38 205.94 766.87 190.44 767.69 M 408.40 767.54 C 405.09 767.97 401.69 768.95 399.03 771.02 C 395.45 774.68 393.36 779.44 390.75 783.78 C 385.06 793.13 379.93 802.82 374.09 812.08 C 369.52 818.53 369.36 827.75 373.59 834.40 C 381.37 846.78 388.00 859.85 395.65 872.32 C 398.87 878.07 405.40 881.67 411.98 881.40 C 425.98 881.34 439.99 881.40 453.99 881.46 C 460.33 881.71 466.90 878.72 470.36 873.31 C 475.76 865.22 480.16 856.52 485.03 848.11 C 488.55 841.92 492.37 835.87 495.44 829.44 C 497.09 824.74 496.84 819.18 494.05 814.96 C 489.61 807.35 485.36 799.64 480.97 792.01 C 476.87 785.99 473.66 779.43 469.60 773.40 C 466.66 769.03 461.05 767.52 456.07 767.38 C 440.18 767.30 424.27 767.01 408.40 767.54 M 624.40 767.60 C 619.75 768.22 615.21 770.57 612.78 774.71 C 605.91 786.22 599.18 797.82 592.45 809.42 C 590.24 813.44 587.72 817.47 586.92 822.06 C 586.31 827.30 589.23 831.99 591.59 836.42 C 598.26 847.72 604.46 859.29 611.32 870.48 C 614.41 876.68 620.82 881.69 627.99 881.40 C 642.66 881.37 657.33 881.38 672.01 881.40 C 679.13 881.67 685.38 876.69 688.81 870.77 C 693.15 862.84 697.82 855.09 702.17 847.16 C 705.68 840.70 710.17 834.67 712.51 827.64 C 714.46 822.17 711.61 816.79 709.05 812.10 C 702.04 799.75 694.76 787.56 687.72 775.24 C 684.51 769.83 678.17 767.22 672.06 767.36 C 656.18 767.32 640.27 766.96 624.40 767.60 M 840.46 767.71 C 836.11 768.45 831.68 770.52 829.55 774.61 C 821.59 788.00 813.68 801.42 805.95 814.95 C 802.47 820.23 802.90 827.51 806.19 832.78 C 813.10 845.70 821.07 858.00 828.12 870.85 C 831.20 877.12 837.89 881.69 844.99 881.41 C 859.66 881.35 874.35 881.41 889.03 881.39 C 892.66 881.47 896.07 880.00 899.07 878.07 C 902.47 876.14 904.20 872.44 906.24 869.28 C 912.93 857.62 919.36 845.80 926.42 834.35 C 930.54 827.94 930.45 819.06 926.24 812.72 C 920.26 803.28 915.11 793.34 909.25 783.83 C 906.60 779.49 904.59 774.64 900.95 771.01 C 896.98 768.07 891.87 767.23 887.04 767.35 C 871.52 767.39 855.95 766.84 840.46 767.71 M 1058.39 767.56 C 1053.97 768.17 1049.04 769.63 1046.73 773.81 C 1038.67 786.54 1031.77 799.97 1023.73 812.73 C 1019.26 819.26 1019.60 828.49 1023.99 834.98 C 1031.53 847.24 1038.19 860.02 1045.63 872.34 C 1048.82 878.12 1055.43 881.63 1061.99 881.42 C 1076.66 881.35 1091.35 881.40 1106.03 881.39 C 1109.85 881.47 1113.48 879.79 1116.49 877.54 C 1120.03 874.94 1121.82 870.79 1124.08 867.16 C 1130.69 855.45 1137.56 843.89 1144.16 832.17 C 1146.91 827.62 1147.19 821.63 1145.07 816.81 C 1137.17 802.56 1128.69 788.66 1120.47 774.61 C 1117.52 769.14 1110.87 767.27 1105.06 767.36 C 1089.51 767.32 1073.94 766.98 1058.39 767.56 M 298.42 831.67 C 294.60 832.37 291.53 835.16 289.00 837.94 C 283.36 846.19 279.06 855.28 273.77 863.76 C 270.30 869.70 266.58 875.53 263.65 881.76 C 262.01 886.70 262.11 892.52 264.88 897.05 C 270.55 907.01 276.27 916.94 282.10 926.79 C 285.34 932.37 288.02 938.71 293.58 942.43 C 296.48 944.82 300.34 945.32 303.98 945.26 C 317.99 945.23 332.00 945.23 346.02 945.26 C 349.65 945.31 353.51 944.80 356.42 942.42 C 361.06 939.25 363.83 934.23 366.44 929.40 C 372.56 918.56 379.06 907.94 385.07 897.05 C 388.46 891.42 388.11 883.88 384.68 878.35 C 378.08 866.65 371.04 855.20 364.52 843.45 C 361.35 837.63 356.27 831.39 349.03 831.43 C 335.36 831.25 321.68 831.45 308.01 831.35 C 304.81 831.36 301.59 831.21 298.42 831.67 M 515.40 831.64 C 509.90 832.74 505.86 837.37 502.84 841.81 C 496.33 853.29 489.73 864.72 483.09 876.12 C 479.25 882.66 478.41 891.13 482.09 897.93 C 489.10 910.23 496.23 922.47 503.23 934.78 C 506.77 940.05 512.09 945.52 518.96 945.23 C 533.98 945.25 549.01 945.26 564.03 945.22 C 569.89 945.60 574.96 941.75 578.33 937.32 C 585.78 925.62 592.27 913.34 599.35 901.42 C 601.55 897.25 604.13 892.89 603.91 888.00 C 604.10 882.88 601.31 878.38 598.92 874.07 C 593.82 865.43 588.83 856.72 583.95 847.96 C 580.60 843.07 578.22 837.25 573.14 833.83 C 568.85 830.40 563.06 831.58 558.00 831.36 C 543.80 831.63 529.57 830.89 515.40 831.64 M 732.39 831.59 C 727.25 832.38 723.11 836.36 720.54 840.70 C 714.33 851.15 708.25 861.70 702.20 872.25 C 699.40 877.11 695.92 882.14 696.09 888.00 C 695.98 894.88 700.38 900.62 703.58 906.37 C 708.70 915.81 714.49 924.85 719.71 934.23 C 721.94 938.46 725.51 941.94 729.74 944.16 C 732.62 945.50 735.91 945.13 739.01 945.27 C 753.02 945.18 767.03 945.30 781.04 945.22 C 787.57 945.37 793.11 940.64 796.36 935.35 C 803.86 922.80 810.72 909.86 818.40 897.42 C 821.06 891.84 820.93 884.97 818.72 879.27 C 812.78 869.77 807.29 859.98 801.87 850.17 C 798.10 844.40 795.53 837.33 789.37 833.60 C 785.50 830.75 780.49 831.46 776.00 831.35 C 761.46 831.55 746.91 831.05 732.39 831.59 M 948.42 831.67 C 942.93 832.90 938.80 837.46 936.18 842.21 C 929.36 854.34 922.24 866.31 915.29 878.36 C 911.63 884.07 911.65 891.95 915.24 897.69 C 921.52 908.73 927.97 919.67 934.29 930.69 C 936.98 935.48 939.29 941.10 944.41 943.82 C 948.73 945.45 953.46 945.17 958.00 945.26 C 971.35 945.17 984.69 945.34 998.04 945.20 C 1004.92 945.40 1010.26 940.00 1013.51 934.48 C 1019.53 924.18 1025.35 913.76 1031.49 903.53 C 1034.03 898.61 1037.92 893.86 1037.36 887.98 C 1037.77 881.89 1033.70 876.99 1031.06 871.89 C 1024.82 861.74 1019.15 851.25 1013.06 841.01 C 1009.98 835.74 1004.52 831.02 998.07 831.38 C 981.52 831.54 964.94 830.98 948.42 831.67 M 1166.39 831.55 C 1160.50 831.89 1156.19 836.59 1153.35 841.32 C 1146.49 852.87 1140.16 864.71 1133.24 876.22 C 1130.46 880.26 1129.31 885.18 1129.74 890.06 C 1129.77 895.40 1133.16 899.74 1135.71 904.16 C 1141.35 914.21 1147.22 924.12 1152.88 934.16 C 1156.31 939.82 1161.85 945.40 1168.96 945.22 C 1183.98 945.27 1199.01 945.24 1214.03 945.24 C 1219.87 945.56 1224.97 941.76 1228.35 937.33 C 1233.84 928.43 1239.02 919.35 1244.22 910.28 C 1247.33 904.40 1251.43 898.98 1253.38 892.55 C 1254.68 887.60 1253.59 882.35 1251.07 877.99 C 1246.01 868.78 1240.46 859.84 1235.55 850.55 C 1231.57 844.33 1228.57 836.94 1221.95 833.02 C 1219.08 830.88 1215.36 831.30 1212.02 831.22 C 1196.81 831.31 1181.58 831.14 1166.39 831.55 M 79.42 832.40 C 75.25 834.34 72.01 837.89 69.81 841.88 C 64.89 850.24 60.13 858.70 55.16 867.04 C 52.06 872.97 47.67 878.45 46.29 885.14 C 44.89 893.03 49.68 899.98 53.58 906.36 C 58.83 916.00 64.72 925.27 70.07 934.85 C 73.24 940.53 79.13 945.53 85.97 945.23 C 100.99 945.25 116.02 945.26 131.04 945.22 C 138.17 945.46 143.66 939.80 147.12 934.16 C 153.12 923.78 159.02 913.34 165.02 902.96 C 166.89 899.76 169.48 896.77 169.95 892.96 C 170.74 887.26 170.48 880.90 166.83 876.16 C 159.97 864.89 153.58 853.34 147.07 841.87 C 143.79 836.60 138.74 831.19 132.00 831.48 C 117.00 831.27 102.01 831.50 87.01 831.43 C 84.47 831.49 81.81 831.39 79.42 832.40 M 189.41 895.52 C 186.07 896.78 182.74 898.62 180.61 901.58 C 175.88 908.13 172.49 915.51 168.40 922.45 C 163.94 929.71 159.68 937.09 155.61 944.58 C 152.93 949.14 152.82 955.15 155.20 959.86 C 162.66 973.54 171.00 986.70 178.69 1000.26 C 180.43 1003.33 182.74 1006.48 186.26 1007.62 C 191.33 1009.27 196.75 1008.69 202.00 1008.87 C 214.01 1009.29 226.03 1008.96 238.05 1008.82 C 243.70 1008.87 250.38 1007.87 253.39 1002.43 C 260.52 990.79 267.09 978.80 274.03 967.04 C 275.50 964.56 277.23 962.21 278.30 959.52 C 280.44 953.43 279.50 946.43 275.94 941.07 C 268.56 928.99 261.77 916.56 254.68 904.32 C 251.45 898.33 244.75 894.66 238.02 894.63 C 224.68 894.61 211.35 894.68 198.01 894.61 C 195.13 894.64 192.16 894.55 189.41 895.52 M 405.52 895.74 C 401.14 897.23 397.53 900.34 395.29 904.38 C 388.11 916.83 381.14 929.41 373.67 941.70 C 369.77 947.90 369.36 956.40 373.27 962.69 C 379.11 972.26 384.54 982.06 390.33 991.66 C 392.96 995.99 395.02 1000.72 398.34 1004.62 C 400.89 1007.75 405.19 1008.37 408.98 1008.71 C 425.57 1009.13 442.19 1009.23 458.79 1008.62 C 463.36 1008.44 467.81 1006.25 470.15 1002.21 C 477.71 989.39 485.39 976.64 492.70 963.67 C 494.57 960.39 496.60 956.93 496.42 953.01 C 496.84 947.41 493.24 942.81 490.79 938.11 C 486.22 930.65 482.23 922.85 477.60 915.42 C 474.63 910.42 472.19 905.05 468.53 900.49 C 464.80 896.62 459.38 894.44 454.01 894.62 C 440.68 894.63 427.35 894.66 414.02 894.61 C 411.15 894.62 408.22 894.68 405.52 895.74 M 623.35 895.36 C 619.00 896.84 614.92 899.53 612.60 903.59 C 605.06 916.20 597.78 928.95 590.59 941.76 C 587.96 946.65 585.08 952.84 587.75 958.28 C 594.94 971.29 602.39 984.15 610.04 996.90 C 612.45 1001.49 615.47 1006.81 620.97 1008.01 C 627.21 1009.37 633.66 1008.60 639.99 1009.06 C 652.25 1008.81 664.56 1009.63 676.79 1008.44 C 682.38 1008.11 686.46 1003.59 689.00 999.00 C 692.88 991.66 697.26 984.61 701.46 977.46 C 703.48 974.14 704.95 970.45 707.62 967.57 C 710.34 964.79 710.58 960.71 712.20 957.34 C 714.64 952.04 711.88 946.34 709.41 941.62 C 702.94 930.08 696.13 918.74 689.78 907.12 C 686.43 900.41 679.80 894.78 672.03 894.67 C 658.35 894.55 644.68 894.72 631.01 894.61 C 628.44 894.63 625.82 894.62 623.35 895.36 M 840.32 895.26 C 835.05 896.70 830.60 900.33 828.19 905.24 C 821.19 917.82 813.65 930.09 806.63 942.66 C 803.37 947.67 802.35 954.42 805.20 959.85 C 812.85 974.02 821.59 987.55 829.44 1001.60 C 831.84 1006.28 836.97 1008.65 842.07 1008.70 C 855.71 1009.02 869.36 1009.23 883.01 1008.85 C 888.51 1008.72 894.49 1009.34 899.47 1006.48 C 903.92 1003.38 905.89 998.06 908.56 993.55 C 914.64 983.56 920.18 973.26 926.35 963.32 C 930.59 956.95 930.40 948.09 926.28 941.71 C 918.79 929.41 911.87 916.78 904.68 904.33 C 901.45 898.32 894.75 894.69 888.02 894.65 C 879.01 894.59 870.00 894.66 861.00 894.64 C 854.11 894.93 847.11 893.95 840.32 895.26 M 1056.41 895.50 C 1050.95 897.08 1046.73 901.17 1044.18 906.15 C 1037.45 918.33 1030.46 930.38 1023.34 942.34 C 1019.82 948.21 1019.57 956.03 1022.93 962.03 C 1030.84 975.19 1038.33 988.61 1046.18 1001.81 C 1048.72 1006.40 1053.89 1008.57 1058.95 1008.69 C 1071.63 1009.00 1084.33 1009.27 1097.02 1008.88 C 1102.83 1008.64 1108.89 1009.42 1114.47 1007.35 C 1118.34 1005.74 1120.46 1001.87 1122.45 998.43 C 1129.53 985.90 1137.23 973.74 1144.13 961.11 C 1147.16 956.20 1147.25 949.63 1144.38 944.64 C 1137.28 931.27 1129.12 918.50 1121.83 905.24 C 1118.79 898.90 1112.03 894.70 1105.02 894.66 C 1091.68 894.56 1078.35 894.70 1065.01 894.60 C 1062.12 894.60 1059.17 894.58 1056.41 895.50 M 718.25 956.28 C 718.77 956.77 718.77 956.77 718.25 956.28 Z" />
</g>
<g id="#ffffffff">
<path fill="#ffffff" opacity="1.00" d=" M 718.25 956.28 C 718.77 956.77 718.77 956.77 718.25 956.28 Z" />
</g>
</svg>
