<?xml version="1.0" encoding="UTF-8"?>
<!DOCTYPE svg PUBLIC "-//W3C//DTD SVG 1.1//EN" "http://www.w3.org/Graphics/SVG/1.1/DTD/svg11.dtd">
<!-- Creator: CorelDRAW 2020 (64-Bit) -->
<svg xmlns="http://www.w3.org/2000/svg" xml:space="preserve" width="210mm" height="297mm" version="1.1" style="shape-rendering:geometricPrecision; text-rendering:geometricPrecision; image-rendering:optimizeQuality; fill-rule:evenodd; clip-rule:evenodd"
viewBox="0 0 21000 29700"
 xmlns:xlink="http://www.w3.org/1999/xlink"
 xmlns:xodm="http://www.corel.com/coreldraw/odm/2003">
 <defs>
  <style type="text/css">
   <![CDATA[
    .fil0 {fill:#FEFEFE;fill-rule:nonzero}
   ]]>
  </style>
 </defs>
 <g id="Capa_x0020_1">
  <metadata id="CorelCorpID_0Corel-Layer"/>
  <g id="__x0023_fefefeff">
  </g>
  <g id="__x0023_010101ff">
   <g>
    <path class="fil0" d="M4305.13 6321.08l9220.55 0c122.77,158.05 277.99,286.11 414.87,431.45 833.96,836.44 1669.34,1671.46 2505.43,2505.08 72.31,67.73 129.46,171.1 91.36,271.28 -34.57,121.36 -161.21,198.62 -284.33,189.8 -859.37,-1.06 -1718.74,0.35 -2578.1,-0.35 -266.7,3.88 -522.12,-231.07 -517.18,-502.01 1.06,-791.63 -1.06,-1583.26 1.41,-2374.9 -2884.66,2.47 -5769.68,3.53 -8654.34,-0.35 4.58,5238.4 -0.71,10476.44 2.82,15714.84 3841.05,-3.88 7682.44,-3.17 11523.84,-0.35 1.77,-4000.5 -0.35,-8001 1.06,-12001.5 2.82,-76.56 17.29,-159.46 74.08,-215.55 95.25,-114.65 294.22,-103.01 383.12,12.35 82.9,123.47 57.5,277.28 60.68,416.98 -0.71,3844.57 -0.71,7688.79 0,11533.37 -4.24,162.63 21.16,337.96 -61.03,486.83 -56.45,96.31 -141.11,171.45 -214.14,254.71l-12011.38 0c-131.59,-135.47 -280.11,-287.52 -273.4,-491.07 -2.82,-5151.62 0,-10303.23 -1.41,-15454.85 1.76,-148.87 -16.23,-303.74 41.27,-445.55 45.16,-136.53 188.74,-193.33 273.76,-299.87 0.35,-7.76 0.7,-22.93 1.06,-30.34l0 0zm9355.66 875.95c1.42,667.81 4.59,1335.27 -1.76,2002.72 685.8,3.18 1371.6,5.65 2057.05,-1.41 -14.82,-2.47 -44.81,-7.05 -59.97,-9.52 -665.34,-663.58 -1326.1,-1331.74 -1995.32,-1991.79z"/>
   </g>
   <g>
    <path class="fil0" d="M6696.61 7688.45c113.59,-59.62 236,-59.26 347.13,6 41.27,70.55 71.97,145.7 89.25,225.42 284.69,67.03 572.56,224.72 702.38,499.18 62.8,117.13 74.44,250.48 71.26,381 -53.97,82.91 -122.41,173.22 -230.71,177.8 -150.64,24.35 -277.64,-113.24 -281.17,-257.17 -14.11,-147.11 -155.92,-219.08 -275.16,-273.4 2.11,277.63 1.41,555.27 0,832.91 291.39,114.3 601.84,282.92 724.96,588.78 69.85,148.52 63.85,313.97 55.03,473.43 -33.87,83.61 -68.44,167.22 -106.19,248.71 -81.49,107.95 -182.03,200.38 -295.27,273.75 -34.22,15.17 -68.44,30.7 -102.66,46.22 -17.99,9.52 -53.98,29.28 -71.97,38.8 -65.61,16.58 -130.53,36.34 -196.49,51.51 -11.65,100.19 -43.75,212.72 -145.35,256.82 -117.83,70.91 -257.53,6 -339.02,-88.9 -12.7,-55.39 -25.75,-110.42 -38.1,-165.8 -178.5,-39.16 -346.43,-115.01 -494.24,-222.25 -167.92,-155.23 -305.51,-373.6 -280.46,-610.66 11.29,-167.57 224.02,-285.75 369.36,-195.09 104.42,40.22 125.94,163.34 145.7,259.65 26.81,128.41 157.69,185.91 258.58,246.94 9.18,-280.46 1.06,-560.92 5.65,-841.38 -252.59,-93.13 -504.83,-232.12 -657.93,-461.08 -177.8,-274.81 -166.16,-655.1 36.33,-914.4 166.16,-188.73 400.41,-284.69 631.12,-366.89 -1.76,-79.02 35.28,-146.75 77.97,-209.9l0 0zm-354.9 1101.37c13.05,148.17 153.46,226.84 265.29,299.51 14.46,-216.96 -29.63,-443.09 26.81,-654.05 -142.17,60.68 -338.66,168.63 -292.1,354.54l0 0zm779.99 1047.75c-2.47,214.85 -1.76,430.04 2.47,644.88 129.47,-62.09 263.18,-154.51 282.93,-308.68 -22.22,-161.22 -149.93,-265.64 -285.4,-336.2z"/>
   </g>
   <path class="fil0" d="M8712.73 8438.1c-25.05,-137.23 96.66,-268.46 231.42,-272.34 295.28,-24.69 591.61,10.58 886.89,-13.76 151.69,-3.17 368.65,4.94 418.04,183.09 56.09,142.17 -47.27,273.76 -170.39,332.67 -365.48,8.82 -731.31,4.94 -1097.14,4.94 -126.65,1.77 -277.99,-94.54 -268.82,-234.6z"/>
   <path class="fil0" d="M10935.94 8179.17c217.31,-29.64 437.8,-19.76 656.52,-15.17 100.54,4.58 175.33,75.49 229.66,153.81 -1.77,88.9 25.04,196.14 -51.16,263.52 -127,136.17 -329.14,79.02 -492.83,92.43 -152.4,-0.35 -361.95,29.28 -443.79,-135.82 -77.26,-127.7 -10.94,-278.69 101.6,-358.77z"/>
   <path class="fil0" d="M8716.97 9356.74c57.15,-75.5 131.93,-135.12 226.48,-155.58 1144.06,1.06 2287.76,2.47 3431.82,-0.35 123.12,24.7 258.23,118.53 234.25,261.41 23.63,131.23 -93.84,211.31 -197.91,256.47 -1168.76,-0.71 -2337.51,-0.35 -3506.26,0 -65.97,-41.63 -146.76,-74.08 -180.27,-150.28 -17.99,-69.15 -9.88,-141.47 -8.11,-211.67z"/>
   <path class="fil0" d="M8963.56 10255.97c583.14,-6.35 1166.63,0.35 1750.13,-3.18 97.72,0.71 214.84,8.12 275.52,98.08 97.36,116.06 58.21,314.67 -77.26,383.82 -66.68,34.57 -143.93,24.34 -216.25,27.52 -583.15,-2.83 -1166.64,1.41 -1749.78,-2.12 -182.39,-1.77 -297.39,-222.96 -207.79,-376.77 46.57,-79.73 134.76,-123.82 225.43,-127.35z"/>
   <path class="fil0" d="M11630.2 10372.03c89.26,-144.99 275.17,-117.47 420.52,-118.88 167.92,10.23 359.83,-38.81 501.29,78.67 17.99,28.57 36.69,56.79 55.39,85.02 1.41,81.49 -2.82,163.68 -17.99,244.12 -68.09,40.21 -133,103.36 -217.31,100.19 -217.67,-2.83 -436.04,11.29 -652.64,-12.7 -111.13,-86.43 -186.97,-250.48 -89.26,-376.42z"/>
   <g>
    <path class="fil0" d="M5628.4 12163.79c72.67,-49.74 157.69,-80.08 246.59,-75.49 2939.34,1.41 5879.04,-1.06 8818.03,1.41 111.13,-7.76 205.32,55.38 266,143.58 3.52,51.15 9.87,102.3 12.34,153.46 -1.05,1424.16 -0.35,2848.33 -0.7,4272.49 -1.06,169.33 7.05,339.02 -12.7,507.65 -61.03,82.55 -151.7,146.75 -259.29,140.76 -2952.4,1.05 -5904.8,1.05 -8857.2,0 -109.71,6.7 -202.14,-56.8 -261.41,-143.94 -6.35,-74.08 -11.99,-148.16 -11.99,-222.25 0.35,-1506.01 0.71,-3011.66 -0.35,-4517.32 1.06,-59.97 6.35,-119.59 12.7,-178.86 11.99,-20.46 35.98,-61.03 47.98,-81.49l0 0zm445.2 1494.02c52.92,4.23 106.19,7.05 159.81,7.76 1347.61,0.35 2695.22,-1.06 4042.83,0.7 3.88,-358.77 -0.35,-717.19 1.41,-1075.62 -1400.88,4.59 -2802.11,4.59 -4203.34,0 -2.47,355.6 -2.12,711.56 -0.71,1067.16l0 0zm4713.82 -1065.75c-6.7,352.78 15.52,706.62 -13.05,1058.34 73.73,5.99 146.75,18.34 220.83,15.87 450.5,-3.17 901,2.47 1351.5,-2.82 6.35,-7.41 19.4,-22.22 25.75,-29.99 8.47,-347.48 -1.06,-695.32 4.23,-1042.81 -529.87,5.29 -1059.39,2.83 -1589.26,1.41l0 0zm2091.97 1073.51c347.49,-0.36 694.97,-0.71 1042.46,0.35 180.97,-1.06 361.95,-0.35 542.92,-1.06 1.06,-357.72 0,-715.78 0,-1073.5 -527.75,3.53 -1055.86,3.17 -1583.62,0 -3.88,358.07 -1.05,716.14 -1.76,1074.21l0 0zm-6806.49 499.18c-0.71,355.95 -0.36,711.55 0.7,1067.5 1401.94,-3.17 2803.53,-1.05 4205.47,-1.05 -1.77,-354.9 -3.53,-710.15 0.35,-1065.04 -1402.29,-1.77 -2804.23,1.06 -4206.52,-1.41l0 0zm4713.81 0.35c2.83,355.95 0,711.91 1.41,1067.86 529.88,-4.59 1059.75,-0.35 1589.97,-2.47 -5.29,-354.19 -2.47,-708.38 -1.41,-1062.57 -529.87,-5.64 -1059.74,-0.35 -1589.97,-2.82l0 0zm2091.62 0.35c2.12,355.25 1.06,710.5 0.71,1065.75 528.81,-1.06 1057.63,0 1586.44,-0.36 -0.71,-354.89 -1.06,-710.14 0.71,-1065.03 -529.17,-0.71 -1058.69,0 -1587.86,-0.36l0 0zm-6804.38 2640.55c1400.53,-3.89 2801.41,-4.94 4201.94,0.7 3.88,-359.13 0.35,-717.9 1.76,-1077.03 -1400.52,2.47 -2801.05,2.82 -4201.58,0 -6,358.78 -3.53,717.55 -2.12,1076.33l0 0zm4714.17 -148.17c0.71,49.74 0.71,99.83 1.42,149.58 524.93,-7.41 1049.86,-4.94 1574.8,-1.41 17.63,-358.07 20.1,-718.97 -2.12,-1076.68 -523.88,4.23 -1048.1,1.76 -1571.98,1.41 -8.47,309.03 -0.7,618.07 -2.12,927.1l0 0zm2093.03 147.81c528.11,-3.17 1056.22,-4.58 1583.98,1.06 0.35,-358.42 -0.36,-716.84 0,-1074.91 -528.46,-1.77 -1056.57,2.11 -1585.03,-2.47 -1.06,358.77 -2.12,717.55 1.05,1076.32z"/>
   </g>
   <g>
    <path class="fil0" d="M9462.03 18334.58c369.36,-231.77 837.85,-286.1 1253.77,-162.28 318.21,97.72 611.37,293.87 805.4,566.21 305.5,383.12 378.53,917.93 249.06,1383.24 -15.17,2.47 -45.51,7.41 -60.68,9.53 12.7,4.23 38.1,12.7 50.45,16.58 -57.15,105.13 -61.39,297.39 -203.2,317.15 16.22,-1.06 49.03,-3.88 65.26,-5.29 -59.62,102.3 -135.11,193.32 -209.9,284.69 -131.94,131.58 -281.17,243.77 -445.21,332.31 -442.38,215.9 -975.43,206.38 -1416.75,-7.05 -345.73,-197.56 -633.59,-507.65 -761.3,-888.65 -99.83,-267.05 -90.31,-559.86 -53.97,-838.2 97.01,-414.16 354.54,-796.22 727.07,-1008.24l0 0zm29.64 631.47c-198.62,212.02 -302.69,510.47 -276.23,800.1 34.57,291.4 182.39,575.39 423.33,748.25 222.25,170.39 511.53,236.36 787.76,205.31 46.92,-14.81 94.89,-26.46 142.87,-38.1 479.07,-133.35 813.15,-640.99 749.65,-1133.47 -35.98,-223.31 -127.35,-444.5 -290.68,-605.02 -172.16,-188.03 -421.57,-292.8 -671.69,-321.73 -320.33,-25.4 -651.23,103.72 -865.01,344.66z"/>
   </g>
   <g>
    <path class="fil0" d="M12739.34 18654.2c95.95,-34.57 198.96,-25.4 299.15,-25.75 471.32,1.41 942.63,-1.06 1413.94,1.05 261.76,-4.58 510.11,214.85 515.05,480.84 7.41,369.01 2.83,738.72 2.12,1108.08 3.17,274.81 -250.47,493.88 -516.47,497.06 -446.97,12.35 -894.99,0.71 -1342.32,5.64 -200.73,6.35 -414.16,-11.28 -578.91,-138.64 -74.08,-94.89 -154.16,-198.61 -155.57,-324.91 -2.82,-377.47 0.35,-755.29 -1.06,-1132.77 -8.11,-216.6 164.4,-408.16 364.07,-470.6l0 0zm141.11 488.95c-3.18,352.78 -0.71,705.2 -1.06,1057.98 528.82,-1.41 1057.98,-2.12 1586.8,0.7 -1.77,-352.77 -1.06,-705.55 -0.71,-1057.98 -528.11,-1.05 -1056.57,0 -1585.03,-0.7z"/>
   </g>
   <path class="fil0" d="M5582.53 19028.14c64.21,-59.97 132.65,-134.41 227.9,-132.64 693.56,-3.18 1387.12,-0.35 2080.68,-1.41 110.07,-9.88 198.62,66.67 263.17,146.75 10.24,90.31 27.87,198.26 -47.27,267.41 -58.56,81.14 -161.22,94.9 -254.35,91.72 -669.57,0 -1338.79,1.06 -2008.36,-0.35 -109.37,3.53 -228.96,-52.92 -264.24,-162.63 -13.05,-69.5 -2.82,-139.7 2.47,-208.85z"/>
   <path class="fil0" d="M10147.83 19171.02c238.48,-65.62 511.53,74.08 600.43,305.15 93.84,207.43 11.64,448.73 -141.82,603.6 -137.93,76.91 -300.92,146.41 -459.67,92.78 -271.64,-51.15 -454.37,-360.53 -379.23,-623.71 42.33,-184.5 194.73,-337.96 380.29,-377.82z"/>
   <path class="fil0" d="M6164.26 20013.45c56.45,-50.45 132.3,-79.37 208.14,-71.97 505.89,0.71 1011.42,-0.7 1517.3,0.71 79.38,-7.06 146.76,39.86 213.78,74.79 19.05,34.57 38.81,68.79 59.27,102.66 -1.06,74.79 12.7,161.57 -42.33,222.25 -55.04,88.9 -165.81,110.77 -262.82,111.12 -484.01,0.71 -968.02,-0.35 -1452.04,0.71 -107.24,4.23 -223.3,-32.81 -283.98,-126.3 -35.63,-101.24 -44.8,-236.36 42.68,-313.97z"/>
  </g>
 </g>
</svg>
