<?xml version="1.0" encoding="UTF-8"?>
<!DOCTYPE svg PUBLIC "-//W3C//DTD SVG 1.1//EN" "http://www.w3.org/Graphics/SVG/1.1/DTD/svg11.dtd">
<!-- Creator: CorelDRAW 2020 (64-Bit) -->
<svg xmlns="http://www.w3.org/2000/svg" xml:space="preserve" width="100px" height="70px" version="1.1" style="shape-rendering:geometricPrecision; text-rendering:geometricPrecision; image-rendering:optimizeQuality; fill-rule:evenodd; clip-rule:evenodd"
viewBox="0 0 100 70"
 xmlns:xlink="http://www.w3.org/1999/xlink"
 xmlns:xodm="http://www.corel.com/coreldraw/odm/2003"
 enable-background="new 0 0 1000 1000">
 <defs>
  <style type="text/css">
   <![CDATA[
    .fil0 {fill:black;fill-rule:nonzero}
   ]]>
  </style>
 </defs>
 <g id="Capa_x0020_1">
  <metadata id="CorelCorpID_0Corel-Layer"/>
  <g id="_2490260488416">
   <path class="fil0" d="M8.32 45.99c0,-0.03 0.01,-0.05 0.01,-0.08 0.1,-1.31 0.79,-2.43 1.8,-3.13 0.06,-0.04 0.11,-0.07 0.17,-0.11 0.3,-0.19 0.59,-0.34 0.94,-0.45 0.27,-0.1 0.53,-0.14 0.82,-0.17 0.14,-0.01 0.28,-0.08 0.41,-0.08l75.92 0c2.31,0 4.22,1.9 4.22,4.24 0,2.34 -1.91,4.24 -4.22,4.24l-61.51 0 9.51 6.05c1.82,1.15 2.4,3.66 1.3,5.56l-0.32 0.55c-1.1,1.9 -3.5,2.52 -5.3,1.37l-21.95 -13.97c-1.2,-0.76 -1.79,-2.1 -1.79,-3.48 -0.01,-0.11 -0.07,-0.21 -0.07,-0.33 0.02,-0.07 0.04,-0.13 0.06,-0.21z"/>
   <path class="fil0" d="M88.39 27.95l-75.9 0c-2.31,0 -4.22,-1.9 -4.22,-4.21 0,-2.33 1.91,-4.23 4.22,-4.23l61.48 0 -9.77 -6.13c-1.83,-1.15 -2.43,-3.63 -1.31,-5.53l0.31 -0.55c1.12,-1.9 3.53,-2.51 5.38,-1.35l22.15 13.89c1.25,0.79 1.86,2.19 1.82,3.61 0.01,0.11 0.06,0.19 0.06,0.3 0.01,2.3 -1.89,4.2 -4.22,4.2z"/>
  </g>
 </g>
</svg>
