<?xml version="1.0" encoding="UTF-8"?>
<!DOCTYPE svg PUBLIC "-//W3C//DTD SVG 1.1//EN" "http://www.w3.org/Graphics/SVG/1.1/DTD/svg11.dtd">
<!-- Creator: CorelDRAW 2020 (64-Bit) -->
<svg xmlns="http://www.w3.org/2000/svg" xml:space="preserve" width="210mm" height="297mm" version="1.1" style="shape-rendering:geometricPrecision; text-rendering:geometricPrecision; image-rendering:optimizeQuality; fill-rule:evenodd; clip-rule:evenodd"
viewBox="0 0 21000 29700"
 xmlns:xlink="http://www.w3.org/1999/xlink"
 xmlns:xodm="http://www.corel.com/coreldraw/odm/2003">
 <defs>
  <style type="text/css">
   <![CDATA[
    .fil0 {fill:#FEFEFE;fill-rule:nonzero}
   ]]>
  </style>
 </defs>
 <g id="Capa_x0020_1">
  <metadata id="CorelCorpID_0Corel-Layer"/>
  <g id="__x0023_f6f6f6ff">
  </g>
  <g id="__x0023_020202ff">
   <g>
    <path class="fil0" d="M12838.56 6030.55l370.07 0c874.18,724.61 1739.9,1459.8 2610.91,2188.64 478.01,407.1 965.9,802.22 1440.39,1213.55 -2184.05,2614.44 -4379.39,5220.06 -6564.14,7834.14 -88.19,106.19 -172.15,217.31 -273.75,311.86 -106.9,-56.45 -190.86,-145.7 -283.99,-220.84 -1137,-948.62 -2264.48,-1908.88 -3405.36,-2852.21 652.28,197.91 1297.51,419.45 1949.8,617.71 395.82,123.83 847.37,8.82 1149.35,-270.58 246.59,-223.31 391.23,-552.1 398.28,-883.71 0.36,-373.94 -173.91,-752.12 -479.07,-973.66 -210.61,-150.99 -446.97,-260.35 -670.63,-390.53 -383.47,-221.19 -775.4,-428.27 -1155.35,-655.46 -53.97,-17.29 1.42,-53.27 16.94,-79.37 1631.95,-1946.63 3261.43,-3895.38 4896.55,-5839.54l0 0zm-2531.53 4461.94c-301.98,337.96 -449.44,805.39 -408.16,1255.18 47.62,584.91 386.99,1132.77 878.77,1449.57 557.39,371.47 1316.92,426.5 1907.11,97.36 435.33,-250.12 737.66,-699.2 820.56,-1192.74 69.5,-527.75 -94.54,-1071.74 -436.38,-1478.14 -357.72,-414.51 -887.94,-688.62 -1439.69,-695.68 -493.89,-15.87 -996.24,189.8 -1322.21,564.45z"/>
   </g>
   <path class="fil0" d="M5911.07 8959.32c325.96,-86.43 650.87,-199.32 991.3,-201.79 141.47,-0.36 283.28,3.88 423.69,22.58 744.71,106.89 1482.37,258.93 2224.26,382.41 -445.2,562.68 -921.45,1101.02 -1376.89,1655.94 -119.59,133.35 -224.72,279.75 -350.66,407.45 -224.37,22.23 -451.56,-6.35 -675.92,14.47 -252.94,48.68 -409.58,348.89 -298.1,582.43 44.45,118.89 154.16,189.45 261.06,245.89 753.53,421.57 1506,844.55 2257.77,1268.94 181.68,100.54 314.68,287.16 346.08,492.83 52.56,243.42 -42.34,510.82 -234.6,669.22 -172.86,162.28 -428.62,199.32 -653.34,147.46 -267.41,-77.61 -529.88,-171.8 -796.93,-250.47 -443.44,-147.46 -890.41,-284.34 -1333.5,-432.86 -236.71,-79.37 -480.13,-141.11 -706.97,-246.24 -341.84,-154.51 -593.01,-440.26 -844.19,-708.73 -132.65,-149.22 -339.37,-233.89 -537.64,-181.33 -419.45,108.31 -837.14,224.37 -1258,327.03 -8.47,-221.54 -26.11,-443.09 -9.17,-664.63 18.69,-223.66 -19.41,-447.33 -1.77,-670.99 23.29,-341.84 -17.28,-683.68 6,-1024.82 6.35,-211.31 -23.28,-422.27 -5.64,-633.23 17.63,-194.74 -10.59,-390.17 9.52,-584.56 186.27,-8.81 380.29,28.93 558.45,-39.86 667.1,-197.91 1336.32,-386.29 2005.19,-577.14z"/>
   <path class="fil0" d="M1703.49 9154.76c364.06,-3.53 728.48,-1.06 1092.55,-1.77 1.76,1588.91 0.7,3177.82 0.7,4766.73 -222.25,-0.7 -444.14,1.77 -666.04,-1.41 -11.29,-243.77 -45.51,-485.42 -59.97,-729.19 -98.78,-998.01 -187.68,-1997.43 -281.52,-2995.79 -34.22,-346.07 -63.15,-691.79 -85.72,-1038.57z"/>
   <path class="fil0" d="M10991.42 10855.5c120.65,-114.66 250.47,-238.13 419.1,-272.7 89.61,135.47 188.03,264.23 282.93,395.82 -191.21,101.95 -388.76,219.78 -499.54,413.1 -45.86,84.67 26.82,193.67 124.53,150.64 227.19,-83.61 422.99,-236.37 657.94,-302.34 85.37,-2.82 171.09,-2.82 256.46,0.36 143.23,58.91 289.28,133.35 377.48,266.34 152.4,219.08 129.11,516.12 18.69,748.25 87.14,72.32 176.75,141.46 257.18,221.19 -94.19,104.42 -179.21,216.96 -275.17,320.32 -99.13,-22.58 -165.45,-124.18 -245.53,-184.86 -147.11,130.18 -300.57,266 -493.54,321.39 -106.54,-140.41 -219.07,-279.4 -301.62,-436.04 190.15,-51.5 361.95,-164.75 492.48,-311.5 62.08,-75.5 132.29,-177.45 82.19,-277.28 -15.17,-11.29 -45.86,-33.87 -61.03,-45.16 -191.91,16.23 -343.25,146.76 -511.88,225.43 -166.51,79.02 -364.06,129.82 -542.92,61.38 -184.86,-73.03 -342.9,-235.66 -377.83,-435.68 -45.15,-168.28 7.41,-341.14 65.97,-498.83 -79.73,-69.85 -161.22,-137.23 -242.71,-204.26 97.01,-110.06 194.73,-219.78 281.16,-338.31 81.85,56.44 160.17,117.83 235.66,182.74z"/>
   <path class="fil0" d="M6461.75 17761.48c225.07,-144.64 524.94,-148.52 761.3,-27.87 717.9,498.47 1448.5,978.25 2157.59,1489.07 396.87,276.58 885.47,415.93 1368.07,404.99 893.58,-0.71 1787.52,-0.71 2681.11,0 103.36,8.82 211.67,-51.86 241.65,-154.16 37.4,-80.79 -18.34,-161.22 -49.74,-232.84 -61.38,-29.98 -124.18,-66.67 -194.73,-61.38 -587.38,-0.71 -1174.75,1.76 -1762.13,-1.06 -298.8,-6.35 -552.09,-233.19 -648.76,-507.29 -45.15,-177.8 -36.68,-370.77 52.57,-534.11 109.71,-220.84 348.9,-364.42 593.02,-374.65 1094.31,0 2188.98,0.71 3283.3,-0.35 526.7,-5.65 1070.33,35.63 1557.51,252.23 32.46,16.58 65.27,32.81 98.43,49.39 537.99,285.05 896.76,805.04 1172.99,1331.74 436.73,834.32 731.66,1731.79 1080.2,2604.56 -936.62,91.72 -1875.01,169.68 -2810.93,264.93 -403.93,29.99 -806.45,72.32 -1209.32,110.42 -131.59,-193.67 -288.93,-376.06 -489.31,-501.29 -192.61,-113.6 -415.22,-155.58 -633.94,-184.86 -94.19,-1.41 -188.74,-1.41 -282.93,-1.76 -975.78,-0.71 -1951.56,0 -2927.7,0 -118.18,0 -236.01,-9.18 -353.48,-20.46 -68.44,-17.64 -137.59,-30.7 -206.38,-46.22 -710.85,-180.97 -1318.68,-625.12 -1848.91,-1116.54 -558.44,-525.29 -1134.53,-1031.52 -1719.79,-1526.82 -130.88,-104.78 -210.96,-256.47 -255.06,-415.57 -56.79,-303.75 77.97,-638.89 345.37,-800.1z"/>
   <path class="fil0" d="M15013.09 22886.63c1435.45,-133.35 2870.9,-266.35 4306.36,-399.7l0 1101.73c-1583.98,-0.71 -3168.3,0.35 -4752.27,-0.35 2.46,-222.61 -1.42,-444.86 2.82,-667.11 148.16,-6.7 295.98,-16.22 443.09,-34.57z"/>
  </g>
 </g>
</svg>
