<?xml version="1.0" encoding="UTF-8"?>
<!DOCTYPE svg PUBLIC "-//W3C//DTD SVG 1.1//EN" "http://www.w3.org/Graphics/SVG/1.1/DTD/svg11.dtd">
<!-- Creator: CorelDRAW 2020 (64-Bit) -->
<svg xmlns="http://www.w3.org/2000/svg" xml:space="preserve" width="211.5mm" height="210mm" version="1.1" style="shape-rendering:geometricPrecision; text-rendering:geometricPrecision; image-rendering:optimizeQuality; fill-rule:evenodd; clip-rule:evenodd"
viewBox="0 0 21150 21000"
 xmlns:xlink="http://www.w3.org/1999/xlink"
 xmlns:xodm="http://www.corel.com/coreldraw/odm/2003">
 <defs>
  <style type="text/css">
   <![CDATA[
    .fil0 {fill:#00CB17;fill-rule:nonzero}
   ]]>
  </style>
 </defs>
 <g id="Capa_x0020_1">
  <metadata id="CorelCorpID_0Corel-Layer"/>
  <g id="_2443811595056">
   <g>
    <g>
     <path class="fil0" d="M18241.13 16717.88c-106.89,-185.17 -343.66,-248.64 -528.99,-141.73l-1407.67 812.62c-185.2,106.93 -248.69,343.78 -141.73,528.99 71.73,124.24 201.89,193.72 335.76,193.72 65.68,0 132.24,-16.76 193.22,-51.96l1407.68 -812.62c185.17,-106.96 248.69,-343.77 141.73,-529.02z" data-original="#000000" data-old_color="#000000"/>
    </g>
   </g>
   <g>
    <g>
     <path class="fil0" d="M20344.91 11850.87c-0.11,-15.76 -1.03,-31.52 -3.12,-47.28 -0.16,-1.04 -0.37,-2.09 -0.53,-3.12 -1.97,-14.1 -4.9,-28.1 -8.44,-42.06 -1,-3.93 -2.13,-7.7 -3.2,-11.57 -3.24,-11.26 -7.1,-22.39 -11.41,-33.46 -1.5,-3.77 -2.86,-7.67 -4.47,-11.4 -5.93,-13.8 -12.46,-27.41 -20.12,-40.75 -0.23,-0.38 -0.47,-0.82 -0.7,-1.19 -7.68,-13.26 -16.19,-25.67 -25.13,-37.66 -2.43,-3.28 -5.13,-6.4 -7.68,-9.56 -7.4,-9.29 -15.15,-18.15 -23.28,-26.63 -2.78,-2.88 -5.55,-5.78 -8.4,-8.55 -10.29,-10.1 -21.05,-19.62 -32.3,-28.41 -0.81,-0.61 -1.54,-1.35 -2.34,-1.96 -12.61,-9.63 -25.75,-18.35 -39.35,-26.33 -1.01,-0.58 -1.9,-1.35 -2.89,-1.92l-4497.94 -2596.69 -0.03 -5193.88c0,-1.12 -0.19,-2.15 -0.24,-3.28 -0.11,-15.83 -1.07,-31.68 -3.16,-47.52 -0.11,-0.81 -0.3,-1.57 -0.42,-2.34 -1.97,-14.42 -4.97,-28.69 -8.64,-42.93 -0.93,-3.66 -2.01,-7.33 -3.04,-10.99 -3.32,-11.52 -7.24,-22.97 -11.69,-34.3 -1.38,-3.54 -2.66,-7.17 -4.16,-10.64 -6.05,-14.07 -12.65,-27.98 -20.51,-41.59 -7.83,-13.56 -16.54,-26.21 -25.67,-38.47 -2.32,-3.12 -4.9,-6.09 -7.33,-9.14 -7.52,-9.44 -15.38,-18.46 -23.63,-27.02 -2.69,-2.81 -5.43,-5.67 -8.22,-8.41 -10.32,-10.14 -21.12,-19.69 -32.38,-28.52 -0.77,-0.61 -1.5,-1.31 -2.27,-1.92 -12.65,-9.68 -25.83,-18.39 -39.47,-26.4 -0.96,-0.58 -1.8,-1.31 -2.78,-1.85l-4691.32 -2708.51c-119.79,-69.15 -267.42,-69.18 -387.26,0l-4691.24 2708.47c-0.94,0.53 -1.69,1.19 -2.63,1.73 -13.72,8.05 -26.98,16.81 -39.74,26.6 -0.61,0.47 -1.15,1 -1.77,1.5 -11.46,8.9 -22.4,18.66 -32.88,28.9 -2.74,2.7 -5.44,5.48 -8.1,8.25 -8.25,8.59 -16.12,17.61 -23.63,27.05 -2.44,3.05 -5.01,6.05 -7.36,9.21 -9.13,12.22 -17.8,24.89 -25.62,38.43 -7.83,13.56 -14.46,27.4 -20.47,41.43 -1.55,3.63 -2.86,7.4 -4.31,11.06 -4.4,11.17 -8.25,22.43 -11.53,33.79 -1.08,3.75 -2.15,7.52 -3.16,11.29 -3.58,14.08 -6.55,28.22 -8.52,42.44 -0.12,0.96 -0.38,1.85 -0.5,2.81 -2.08,15.76 -3,31.61 -3.11,47.37 0,1.13 -0.24,2.23 -0.24,3.36l0 5193.79 -4498.03 2596.79c-0.96,0.54 -1.78,1.26 -2.7,1.8 -13.68,8.02 -26.93,16.77 -39.62,26.52 -0.61,0.46 -1.2,1.03 -1.81,1.5 -11.45,8.9 -22.36,18.62 -32.83,28.94 -2.79,2.7 -5.44,5.51 -8.13,8.29 -8.22,8.55 -16.07,17.54 -23.59,26.98 -2.46,3.09 -5.08,6.14 -7.44,9.3 -9.02,12.06 -17.59,24.59 -25.32,37.96 -0.12,0.19 -0.28,0.38 -0.38,0.61 -7.75,13.49 -14.38,27.22 -20.31,41.17 -1.57,3.7 -2.93,7.56 -4.43,11.34 -4.31,11.05 -8.17,22.27 -11.45,33.53 -1.12,3.82 -2.2,7.63 -3.2,11.48 -3.58,13.98 -6.51,28.03 -8.48,42.17 -0.16,1.01 -0.38,2.01 -0.54,3.05 -2.08,15.76 -3,31.57 -3.12,47.37 0,1.12 -0.23,2.2 -0.23,3.32l0 5417.36 0 0c0,138.38 73.82,266.18 193.61,335.36l4691.64 2708.42c0.93,0.54 1.97,0.89 2.88,1.43 13.8,7.82 27.94,14.92 42.72,21.05 0.88,0.35 1.77,0.61 2.66,0.96 13.3,5.39 26.98,9.91 40.98,13.84 3.82,1.08 7.68,2.01 11.48,2.93 11.41,2.81 23.05,5.08 34.85,6.86 3.97,0.61 7.94,1.36 11.94,1.81 15.11,1.78 30.45,2.97 46.02,2.97 15.58,0 30.92,-1.19 46.02,-2.97 4.01,-0.47 7.99,-1.24 11.95,-1.81 11.8,-1.78 23.39,-4 34.8,-6.86 3.86,-0.96 7.71,-1.89 11.57,-2.97 13.91,-3.86 27.52,-8.41 40.74,-13.77 0.96,-0.38 1.93,-0.65 2.89,-1.08 14.73,-6.09 28.87,-13.18 42.55,-20.96 0.96,-0.54 2.01,-0.93 3,-1.47l4497.61 -2596.69 4497.62 2596.69c1,0.58 2.04,0.93 3.04,1.5 13.72,7.78 27.82,14.84 42.51,20.93 1,0.43 2.04,0.7 3.04,1.13 13.19,5.36 26.75,9.83 40.63,13.72 3.86,1.08 7.75,2.01 11.6,2.97 11.38,2.81 23.02,5.08 34.77,6.86 4.01,0.61 7.99,1.36 11.99,1.81 15.11,1.78 30.42,2.97 46.02,2.97 15.62,0 30.92,-1.19 46.02,-2.97 4.01,-0.47 7.99,-1.24 11.99,-1.81 11.76,-1.78 23.4,-4 34.77,-6.86 3.87,-0.96 7.75,-1.89 11.6,-2.97 13.88,-3.86 27.4,-8.36 40.63,-13.72 1.01,-0.38 2.04,-0.7 3.04,-1.13 14.69,-6.09 28.79,-13.18 42.51,-20.93 1.01,-0.58 2.04,-0.93 3.05,-1.5l4691.64 -2708.42c119.83,-69.16 193.65,-197 193.65,-335.37l-0.01 -5417.23c0.16,-1.2 -0.08,-2.28 -0.08,-3.43zm-3503.05 -1348.31l-3916.78 2261.35 -1575.57 -909.69 3916.71 -2261.27 1575.64 909.61zm-1962.85 -1580.31l-3916.71 2261.27 -0.01 -4522.62 3916.72 -2261.61 0 4522.96zm-4304.01 -7455.1l1575.57 909.64 -3916.82 2261.39 -1575.5 -909.71 3916.75 -2261.32zm-4691.25 8125.84l1575.38 909.53 -3916.86 2261.3 -1575.54 -909.57 3917.02 -2261.26zm-387.21 9716.38l-3917.14 -2261.31 0 -4523.05 1668.42 963.19c51.69,53.84 116.63,90.65 186.75,107.8l2061.95 1190.39 0.02 4522.98zm387.24 -5193.75l-1566.93 -904.59 3916.75 -2261.35 1566.9 904.63 -3916.72 2261.31zm4303.96 2932.44l-3916.7 2261.26 0 -4522.96 3916.7 -2261.35 0 4523.05zm0 -5864.51l-3916.7 -2261.28 0 -4523.03 1667.39 962.83c51.96,54.38 117.44,91.47 188.13,108.62l2061.23 1190.21 0 4522.65 -0.05 0zm-1179.45 -6098.11l3916.79 -2261.51 1566.67 904.52 -3916.71 2261.66 -1566.75 -904.67zm5870.67 14223.85l-3916.66 -2261.23 -0.01 -4523.05 1668.38 963.23c51.52,53.7 116.39,90.39 186.39,107.61l2061.92 1190.44 0.03 4523 -0.05 0zm387.29 -5193.67l-1566.67 -904.52 3916.78 -2261.39 1566.9 904.59 -3917.01 2261.32zm4304.35 2932.44l-3917.1 2261.31 0 -4523.01 3917.1 -2261.35 0 4523.05z" data-original="#000000" data-old_color="#000000"/>
    </g>
   </g>
   <g>
    <g>
     <path class="fil0" d="M18875.22 16018.47c-498.38,0 -499.18,774.51 0,774.51 498.34,-0.02 499.18,-774.51 0,-774.51z" data-original="#000000" data-old_color="#000000"/>
    </g>
   </g>
  </g>
 </g>
</svg>
