<?xml version="1.0" encoding="UTF-8"?>
<!DOCTYPE svg PUBLIC "-//W3C//DTD SVG 1.1//EN" "http://www.w3.org/Graphics/SVG/1.1/DTD/svg11.dtd">
<!-- Creator: CorelDRAW 2020 (64-Bit) -->
<svg xmlns="http://www.w3.org/2000/svg" xml:space="preserve" width="210mm" height="297mm" version="1.1" style="shape-rendering:geometricPrecision; text-rendering:geometricPrecision; image-rendering:optimizeQuality; fill-rule:evenodd; clip-rule:evenodd"
viewBox="0 0 21000 29700"
 xmlns:xlink="http://www.w3.org/1999/xlink"
 xmlns:xodm="http://www.corel.com/coreldraw/odm/2003">
 <defs>
  <style type="text/css">
   <![CDATA[
    .fil0 {fill:#FEFEFE;fill-rule:nonzero}
   ]]>
  </style>
 </defs>
 <g id="Capa_x0020_1">
  <metadata id="CorelCorpID_0Corel-Layer"/>
  <g id="_2443811595056">
   <g>
    <g>
     <path class="fil0" d="M15762.37 19118.22c-73.37,-127.11 -235.9,-170.68 -363.12,-97.29l-966.29 557.82c-127.13,73.4 -170.71,235.98 -97.29,363.12 49.24,85.28 138.59,132.98 230.48,132.98 45.09,0 90.78,-11.51 132.64,-35.67l966.29 -557.82c127.11,-73.42 170.71,-235.98 97.29,-363.14z" data-original="#000000" data-old_color="#000000"/>
    </g>
   </g>
   <g>
    <g>
     <path class="fil0" d="M17206.5 15777.29c-0.08,-10.82 -0.71,-21.64 -2.14,-32.46 -0.11,-0.71 -0.26,-1.43 -0.37,-2.14 -1.35,-9.68 -3.36,-19.29 -5.79,-28.87 -0.69,-2.7 -1.46,-5.29 -2.2,-7.94 -2.22,-7.73 -4.87,-15.37 -7.83,-22.97 -1.03,-2.59 -1.96,-5.27 -3.07,-7.83 -4.07,-9.47 -8.55,-18.81 -13.81,-27.97 -0.16,-0.26 -0.32,-0.56 -0.48,-0.82 -5.27,-9.1 -11.11,-17.62 -17.25,-25.85 -1.67,-2.25 -3.52,-4.39 -5.27,-6.56 -5.08,-6.38 -10.4,-12.46 -15.98,-18.28 -1.91,-1.98 -3.81,-3.97 -5.77,-5.87 -7.06,-6.93 -14.45,-13.47 -22.17,-19.5 -0.56,-0.42 -1.06,-0.93 -1.61,-1.35 -8.65,-6.61 -17.67,-12.59 -27.01,-18.07 -0.69,-0.4 -1.3,-0.93 -1.98,-1.32l-3087.59 -1782.48 -0.02 -3565.31c0,-0.77 -0.13,-1.48 -0.16,-2.25 -0.08,-10.87 -0.74,-21.75 -2.17,-32.62 -0.08,-0.56 -0.21,-1.08 -0.29,-1.61 -1.35,-9.9 -3.41,-19.69 -5.93,-29.47 -0.64,-2.51 -1.38,-5.03 -2.09,-7.54 -2.28,-7.91 -4.97,-15.77 -8.02,-23.55 -0.95,-2.43 -1.83,-4.92 -2.86,-7.3 -4.15,-9.66 -8.68,-19.21 -14.08,-28.55 -5.37,-9.31 -11.35,-17.99 -17.62,-26.41 -1.59,-2.14 -3.36,-4.18 -5.03,-6.27 -5.16,-6.48 -10.56,-12.67 -16.22,-18.55 -1.85,-1.93 -3.73,-3.89 -5.64,-5.77 -7.09,-6.96 -14.5,-13.52 -22.23,-19.58 -0.53,-0.42 -1.03,-0.9 -1.56,-1.32 -8.68,-6.64 -17.73,-12.62 -27.09,-18.12 -0.66,-0.4 -1.24,-0.9 -1.91,-1.27l-3220.33 -1859.24c-82.23,-47.47 -183.57,-47.49 -265.83,0l-3220.28 1859.21c-0.64,0.37 -1.16,0.82 -1.8,1.19 -9.42,5.53 -18.52,11.54 -27.28,18.26 -0.42,0.32 -0.79,0.69 -1.22,1.03 -7.86,6.11 -15.37,12.81 -22.57,19.84 -1.88,1.85 -3.73,3.76 -5.56,5.66 -5.66,5.9 -11.06,12.09 -16.22,18.57 -1.67,2.09 -3.44,4.15 -5.05,6.32 -6.27,8.39 -12.22,17.09 -17.59,26.38 -5.37,9.31 -9.92,18.81 -14.05,28.44 -1.06,2.49 -1.96,5.08 -2.96,7.59 -3.02,7.67 -5.66,15.4 -7.91,23.2 -0.74,2.57 -1.48,5.16 -2.17,7.75 -2.46,9.66 -4.5,19.37 -5.85,29.13 -0.08,0.66 -0.26,1.27 -0.34,1.93 -1.43,10.82 -2.06,21.7 -2.14,32.52 0,0.77 -0.16,1.53 -0.16,2.3l0 3565.25 -3087.65 1782.55c-0.66,0.37 -1.22,0.87 -1.85,1.24 -9.39,5.5 -18.49,11.51 -27.2,18.2 -0.42,0.32 -0.82,0.71 -1.24,1.03 -7.86,6.11 -15.35,12.78 -22.54,19.87 -1.91,1.85 -3.73,3.78 -5.58,5.69 -5.64,5.87 -11.03,12.04 -16.19,18.52 -1.69,2.12 -3.49,4.21 -5.11,6.38 -6.19,8.28 -12.07,16.88 -17.38,26.06 -0.08,0.13 -0.19,0.26 -0.26,0.42 -5.32,9.26 -9.87,18.68 -13.94,28.26 -1.08,2.54 -2.01,5.19 -3.04,7.78 -2.96,7.59 -5.61,15.29 -7.86,23.02 -0.77,2.62 -1.51,5.24 -2.2,7.88 -2.46,9.6 -4.47,19.24 -5.82,28.95 -0.11,0.69 -0.26,1.38 -0.37,2.09 -1.43,10.82 -2.06,21.67 -2.14,32.52 0,0.77 -0.16,1.51 -0.16,2.28l0 3718.71 0 0c0,94.99 50.67,182.72 132.9,230.21l3220.55 1859.18c0.64,0.37 1.35,0.61 1.98,0.98 9.47,5.37 19.18,10.24 29.32,14.45 0.61,0.24 1.22,0.42 1.83,0.66 9.13,3.7 18.52,6.8 28.13,9.5 2.62,0.74 5.27,1.38 7.88,2.01 7.83,1.93 15.82,3.49 23.92,4.71 2.73,0.42 5.45,0.93 8.2,1.24 10.37,1.22 20.9,2.04 31.59,2.04 10.69,0 21.22,-0.82 31.59,-2.04 2.75,-0.32 5.48,-0.85 8.2,-1.24 8.1,-1.22 16.06,-2.75 23.89,-4.71 2.65,-0.66 5.29,-1.3 7.94,-2.04 9.55,-2.65 18.89,-5.77 27.97,-9.45 0.66,-0.26 1.32,-0.45 1.98,-0.74 10.11,-4.18 19.82,-9.05 29.21,-14.39 0.66,-0.37 1.38,-0.64 2.06,-1.01l3087.36 -1782.48 3087.36 1782.48c0.69,0.4 1.4,0.64 2.09,1.03 9.42,5.34 19.1,10.19 29.18,14.37 0.69,0.29 1.4,0.48 2.09,0.77 9.05,3.68 18.36,6.75 27.89,9.42 2.65,0.74 5.32,1.38 7.96,2.04 7.81,1.93 15.8,3.49 23.87,4.71 2.75,0.42 5.48,0.93 8.23,1.24 10.37,1.22 20.88,2.04 31.59,2.04 10.72,0 21.22,-0.82 31.59,-2.04 2.75,-0.32 5.48,-0.85 8.23,-1.24 8.07,-1.22 16.06,-2.75 23.87,-4.71 2.65,-0.66 5.32,-1.3 7.96,-2.04 9.53,-2.65 18.81,-5.74 27.89,-9.42 0.69,-0.26 1.4,-0.48 2.09,-0.77 10.08,-4.18 19.76,-9.05 29.18,-14.37 0.69,-0.4 1.4,-0.64 2.09,-1.03l3220.55 -1859.18c82.26,-47.47 132.93,-135.23 132.93,-230.21l-0.01 -3718.63c0.11,-0.82 -0.05,-1.56 -0.05,-2.35zm-2404.65 -925.54l-2688.65 1552.29 -1081.54 -624.45 2688.6 -1552.24 1081.59 624.4zm-1347.39 -1084.8l-2688.6 1552.24 -0.01 -3104.53 2688.61 -1552.47 0 3104.76zm-2954.46 -5117.51l1081.54 624.42 -2688.68 1552.32 -1081.49 -624.47 2688.63 -1552.27zm-3220.28 5577.94l1081.41 624.34 -2688.71 1552.26 -1081.52 -624.37 2688.82 -1552.23zm-265.8 6669.75l-2688.9 -1552.26 0 -3104.82 1145.28 661.17c35.48,36.96 80.06,62.23 128.19,74l1415.42 817.14 0.01 3104.77zm265.82 -3565.22l-1075.61 -620.95 2688.63 -1552.29 1075.59 620.98 -2688.61 1552.26zm2954.43 2012.96l-2688.6 1552.23 0 -3104.76 2688.6 -1552.29 0 3104.82zm0 -4025.66l-2688.6 -1552.24 0 -3104.81 1144.57 660.93c35.67,37.33 80.62,62.79 129.14,74.56l1414.92 817.01 0 3104.55 -0.03 0zm-809.63 -4186.01l2688.66 -1552.4 1075.43 620.9 -2688.6 1552.5 -1075.49 -621zm4029.89 9763.88l-2688.57 -1552.21 -0.01 -3104.82 1145.25 661.2c35.37,36.86 79.9,62.05 127.95,73.87l1415.39 817.17 0.02 3104.79 -0.03 0zm265.85 -3565.17l-1075.43 -620.9 2688.65 -1552.32 1075.59 620.95 -2688.81 1552.27zm2954.7 2012.96l-2688.87 1552.26 0 -3104.79 2688.87 -1552.29 0 3104.82z" data-original="#000000" data-old_color="#000000"/>
    </g>
   </g>
   <g>
    <g>
     <path class="fil0" d="M16197.64 18638.11c-342.11,0 -342.66,531.66 0,531.66 342.08,-0.01 342.66,-531.66 0,-531.66z" data-original="#000000" data-old_color="#000000"/>
    </g>
   </g>
  </g>
 </g>
</svg>
