<?xml version="1.0" encoding="UTF-8"?>
<!DOCTYPE svg PUBLIC "-//W3C//DTD SVG 1.1//EN" "http://www.w3.org/Graphics/SVG/1.1/DTD/svg11.dtd">
<!-- Creator: CorelDRAW 2020 (64-Bit) -->
<svg xmlns="http://www.w3.org/2000/svg" xml:space="preserve" width="510px" height="120px" version="1.1" style="shape-rendering:geometricPrecision; text-rendering:geometricPrecision; image-rendering:optimizeQuality; fill-rule:evenodd; clip-rule:evenodd"
viewBox="0 0 510 120"
 xmlns:xlink="http://www.w3.org/1999/xlink"
 xmlns:xodm="http://www.corel.com/coreldraw/odm/2003">
 <defs>
  <style type="text/css">
   <![CDATA[
    .fil2 {fill:#E6E6E6}
    .fil0 {fill:#E6E6E6;fill-rule:nonzero}
    .fil1 {fill:#FF7800;fill-rule:nonzero}
   ]]>
  </style>
 </defs>
 <g id="Capa_x0020_1">
  <metadata id="CorelCorpID_0Corel-Layer"/>
  <path class="fil0" d="M74.1 15.37l0 53.89 -10.77 0 0 -53.89 -19.33 0 0 -9.85 49.43 0 0 9.85 -19.33 0zm54.98 14.96c-5.04,0 -8.84,1.64 -11.39,4.92 -2.56,3.29 -3.84,7.7 -3.84,13.22l0 20.79 -10.21 0 0 -48.51 10.21 0 0 9.77c1.65,-3.05 3.88,-5.54 6.71,-7.49 2.82,-1.94 5.82,-2.94 8.98,-3.01l0.09 10.3c-0.18,0 -0.36,0 -0.55,0l0 0.01zm49.62 38.93l-9.31 0 0 -6.47c-4.01,4.8 -9.39,7.21 -16.13,7.21 -5.06,0 -9.24,-1.43 -12.55,-4.28 -3.32,-2.87 -4.96,-6.68 -4.96,-11.46 0,-4.76 1.76,-8.34 5.28,-10.71 3.54,-2.36 8.3,-3.56 14.32,-3.56l13.23 0 0 -1.82c0,-6.45 -3.59,-9.67 -10.77,-9.67 -4.5,0 -9.18,1.65 -14.04,4.93l-4.56 -6.39c5.9,-4.67 12.58,-7.02 20.07,-7.02 5.71,0 10.37,1.45 13.99,4.34 3.62,2.89 5.43,7.42 5.43,13.63l0 31.27zm-10.22 -18.05l0 -4.11 -11.48 0c-7.36,0 -11.04,2.32 -11.04,6.93 0,2.37 0.91,4.18 2.74,5.44 1.82,1.24 4.36,1.86 7.61,1.86 3.25,0 6.1,-0.91 8.53,-2.74 2.43,-1.82 3.64,-4.28 3.64,-7.38zm44.23 18.79c-6.13,0 -11.49,-2.31 -16.05,-6.93 -4.55,-4.63 -6.83,-10.71 -6.83,-18.25 0,-7.54 2.33,-13.56 7.02,-18.05 4.67,-4.5 10.25,-6.75 16.73,-6.75 6.47,0 11.69,2.74 15.64,8.21l0 -26.63 10.21 0 0 67.66 -10.21 0 0 -7.29c-3.78,5.36 -9.27,8.03 -16.51,8.03l0 0zm-12.67 -24.76c0,4.65 1.48,8.44 4.46,11.35 2.98,2.92 6.47,4.37 10.49,4.37 4.02,0 7.41,-1.47 10.21,-4.42 2.8,-2.94 4.2,-6.73 4.2,-11.35 0,-4.61 -1.4,-8.48 -4.2,-11.58 -2.8,-3.09 -6.23,-4.65 -10.3,-4.65 -4.08,0 -7.57,1.56 -10.49,4.65 -2.91,3.1 -4.37,6.98 -4.37,11.63l0 0zm99.3 4.23l-38.02 0c0.24,3.54 1.85,6.38 4.84,8.53 2.97,2.16 6.37,3.24 10.21,3.24 6.07,0 10.69,-1.91 13.86,-5.74l5.83 6.38c-5.22,5.41 -12.04,8.12 -20.43,8.12 -6.8,0 -12.59,-2.27 -17.37,-6.79 -4.77,-4.54 -7.16,-10.62 -7.16,-18.25 0,-7.63 2.44,-13.7 7.3,-18.19 4.87,-4.5 10.59,-6.75 17.18,-6.75 6.61,0 12.22,1.99 16.83,5.97 4.63,3.99 6.93,9.48 6.93,16.46l0 7.02 0 0zm-38.02 -8.02l27.81 0c0,-4.07 -1.28,-7.2 -3.83,-9.39 -2.56,-2.19 -5.7,-3.28 -9.44,-3.28 -3.74,0 -7.09,1.14 -10.07,3.42 -2.98,2.28 -4.47,5.36 -4.47,9.25l0 0z"/>
  <path class="fil1" d="M320.59 54.68c0.74,0 1.33,0.23 1.79,0.68 0.44,0.46 0.78,0.95 1,1.5 0.2,0.56 0.25,1.04 0.14,1.47 -0.13,0.42 -0.43,0.57 -0.91,0.45 -1.78,-0.19 -3.46,-0.26 -5.07,-0.22 -1.61,0.02 -3.58,0.07 -5.88,0.12 -0.43,0 -0.76,-0.2 -1,-0.63 -0.24,-0.43 -0.38,-0.89 -0.42,-1.37 -0.03,-0.48 0.05,-0.94 0.23,-1.37 0.19,-0.42 0.49,-0.61 0.91,-0.54 2.32,0.18 4.18,0.23 5.61,0.14 1.43,-0.09 2.62,-0.17 3.6,-0.23zm8.21 -14.51c0,-3.7 0.24,-7.54 0.72,-11.48 0.5,-3.95 1.71,-7.66 3.65,-11.12 0.13,-0.19 0.34,-0.56 0.65,-1.11 0.3,-0.54 0.67,-1.09 1.09,-1.63 0.43,-0.56 0.88,-1.04 1.37,-1.47 0.48,-0.42 0.93,-0.63 1.37,-0.63 0.67,0 1.11,0.43 1.31,1.28 0.22,0.84 0.33,1.58 0.33,2.19 0,0.61 -0.06,1.24 -0.19,1.91 -0.11,0.66 -0.3,1.67 -0.54,3 -0.67,3.22 -1.17,6.56 -1.51,9.99 -0.33,3.43 -0.49,6.79 -0.49,10.09 0,2.67 0.19,5.57 0.58,8.7 0.4,3.13 1.24,6.04 2.51,8.76 1.28,2.69 3.1,4.96 5.47,6.79 2.37,1.82 5.54,2.73 9.49,2.73 3.77,0 7.21,-0.76 10.35,-2.28 3.13,-1.52 5.88,-3.52 8.25,-6.02 2.37,-2.49 4.3,-5.36 5.79,-8.61 1.49,-3.26 2.51,-6.62 3.06,-10.07 0.17,-0.5 0.35,-1.42 0.5,-2.79 0.15,-1.37 0.28,-2.89 0.41,-4.56 0.12,-1.68 0.23,-3.36 0.31,-5.06 0.09,-1.71 0.14,-3.1 0.14,-4.19 0.13,-3.29 0.27,-5.93 0.46,-7.94 0.18,-2.01 0.85,-3.01 2,-3.01 0.85,0 1.65,0.28 2.37,0.82 0.74,0.55 1.36,1.23 1.88,2.05 0.52,0.83 0.9,1.71 1.14,2.69 0.24,0.98 0.3,1.89 0.18,2.74 -0.25,1.95 -0.39,4.48 -0.41,7.61 -0.04,3.13 -0.04,6.48 0,10.04 0.02,3.55 0.04,7.16 0.04,10.79 0,3.65 -0.16,6.95 -0.46,9.86 -0.3,2.92 -0.78,5.3 -1.46,7.16 -0.66,1.85 -1.61,2.78 -2.82,2.78 -0.67,0 -1.16,-0.77 -1.46,-2.29 -0.3,-1.52 -0.53,-3.24 -0.68,-5.19 -0.16,-1.94 -0.26,-3.81 -0.32,-5.61 -0.06,-1.79 -0.19,-2.93 -0.37,-3.41 -1.33,3.15 -3.03,6.03 -5.05,8.61 -2.04,2.59 -4.34,4.81 -6.9,6.66 -2.54,1.85 -5.36,3.28 -8.42,4.28 -3.08,1.01 -6.35,1.51 -9.81,1.51 -4.74,0 -8.68,-1.02 -11.81,-3.06 -3.13,-2.04 -5.64,-4.7 -7.53,-7.98 -1.88,-3.28 -3.21,-6.97 -4,-11.07 -0.8,-4.11 -1.19,-8.27 -1.19,-12.46l0 0zm124.57 -19.06c1.21,-0.84 2.52,-1.66 3.93,-2.4 1.39,-0.76 2.87,-1.14 4.46,-1.14 0.67,0 1.11,0.07 1.33,0.21 0.2,0.17 0.31,0.38 0.31,0.69 0,0.36 -0.16,0.76 -0.5,1.19 -0.33,0.43 -0.7,0.86 -1.09,1.32 -0.39,0.45 -0.8,0.86 -1.19,1.19 -0.4,0.33 -0.69,0.59 -0.87,0.77 -4.25,3.52 -8.61,7.16 -13.08,10.9 -4.48,3.73 -8.84,7.43 -13.09,11.08 3.41,3.59 6.73,6.98 9.94,10.22 3.22,3.21 6.25,6.28 9.08,9.21 2.82,2.91 5.42,5.65 7.79,8.2 2.37,2.56 4.38,4.92 6.02,7.12 0.19,0.24 -0.02,0.62 -0.6,1.14 -0.57,0.52 -1.19,0.77 -1.86,0.77 -0.85,0 -2.05,-0.53 -3.6,-1.6 -1.56,-1.06 -3.33,-2.45 -5.33,-4.19 -2.02,-1.74 -4.19,-3.71 -6.53,-5.93 -2.34,-2.22 -4.73,-4.49 -7.16,-6.79 -2.43,-2.31 -4.85,-4.59 -7.25,-6.85 -2.4,-2.24 -4.66,-4.25 -6.79,-6.01 -1.76,1.39 -3.51,2.78 -5.24,4.15 -1.74,1.36 -3.53,2.8 -5.39,4.32 -1.85,1.52 -3.75,3.18 -5.7,4.98 -1.94,1.79 -3.94,3.82 -6.02,6.06 -0.3,0.3 -0.62,0.72 -0.95,1.23 -0.34,0.52 -0.73,1.02 -1.19,1.51 -0.46,0.49 -0.92,0.9 -1.41,1.22 -0.49,0.35 -1,0.51 -1.56,0.51 -0.54,0 -0.81,-0.39 -0.81,-1.19 0,-1.27 0.56,-2.71 1.69,-4.33 1.13,-1.61 2.75,-3.46 4.88,-5.57 2.13,-2.09 4.69,-4.46 7.7,-7.1 3.02,-2.65 6.4,-5.62 10.16,-8.9 -3.52,-2.91 -6.84,-5.98 -9.98,-9.21 -3.13,-3.22 -6.27,-6.56 -9.44,-10.02 -0.85,-0.98 -1.76,-2.18 -2.72,-3.6 -0.98,-1.43 -1.47,-2.92 -1.47,-4.44 0,-0.72 0.3,-1.51 0.91,-2.37 0.61,-0.85 1.25,-1.26 1.92,-1.26 0.66,0 1.5,0.34 2.5,1.04 1.01,0.71 2.04,1.53 3.1,2.5 1.07,0.98 2.12,1.98 3.15,3.02 1.04,1.03 1.92,1.88 2.64,2.55 3.22,3.23 6.02,6.13 8.39,8.71 2.37,2.59 4.81,5.06 7.3,7.43 3.78,-3.41 7.62,-6.89 11.54,-10.49 3.92,-3.59 7.95,-6.87 12.08,-9.85l0 0z"/>
  <path class="fil2" d="M15.2 91.7l192.68 0c2.07,0 3.75,1.68 3.75,3.75l0 5c0,2.07 -1.68,3.75 -3.75,3.75l-192.68 0c-2.07,0 -3.75,-1.68 -3.75,-3.75l0 -5c0,-2.07 1.68,-3.75 3.75,-3.75zm292.77 0l192.69 0c2.06,0 3.75,1.68 3.75,3.75l0 5c0,2.07 -1.69,3.75 -3.75,3.75l-192.69 0c-2.07,0 -3.75,-1.68 -3.75,-3.75l0 -5c0,-2.07 1.68,-3.75 3.75,-3.75zm-78.79 13.5c0,-0.02 0.02,-0.04 0.02,-0.06 0.06,-0.86 0.51,-1.59 1.17,-2.05 0.04,-0.03 0.08,-0.04 0.12,-0.07 0.2,-0.14 0.39,-0.22 0.62,-0.3 0.18,-0.06 0.34,-0.09 0.53,-0.11 0.1,0 0.19,-0.06 0.28,-0.06l49.88 0c1.52,0 2.78,1.26 2.78,2.79 0,1.53 -1.26,2.79 -2.78,2.79l-40.42 0 6.25 3.98c1.2,0.76 1.58,2.39 0.86,3.65l-0.21 0.36c-0.73,1.25 -2.3,1.65 -3.49,0.89l-14.42 -9.17c-0.78,-0.5 -1.18,-1.38 -1.18,-2.3 -0.01,-0.06 -0.05,-0.12 -0.05,-0.21 0.02,-0.04 0.04,-0.08 0.04,-0.13l0 0zm52.63 -11.86l-49.88 0c-1.52,0 -2.77,-1.24 -2.77,-2.76 0,-1.53 1.25,-2.79 2.77,-2.79l40.4 0 -6.43 -4.03c-1.2,-0.74 -1.58,-2.38 -0.86,-3.63l0.22 -0.36c0.73,-1.25 2.32,-1.65 3.52,-0.89l14.56 9.13c0.82,0.52 1.23,1.44 1.2,2.38 0,0.06 0.04,0.13 0.04,0.19 0,1.52 -1.24,2.76 -2.77,2.76l0 0z"/>
 </g>
</svg>
