<?xml version="1.0" encoding="UTF-8"?>
<!DOCTYPE svg PUBLIC "-//W3C//DTD SVG 1.1//EN" "http://www.w3.org/Graphics/SVG/1.1/DTD/svg11.dtd">
<!-- Creator: CorelDRAW 2020 (64-Bit) -->
<svg xmlns="http://www.w3.org/2000/svg" xml:space="preserve" width="400px" height="100px" version="1.1" style="shape-rendering:geometricPrecision; text-rendering:geometricPrecision; image-rendering:optimizeQuality; fill-rule:evenodd; clip-rule:evenodd"
viewBox="0 0 400 100"
 xmlns:xlink="http://www.w3.org/1999/xlink"
 xmlns:xodm="http://www.corel.com/coreldraw/odm/2003">
 <defs>
  <style type="text/css">
   <![CDATA[
    .fil2 {fill:#333333}
    .fil0 {fill:#333333;fill-rule:nonzero}
    .fil1 {fill:#E6E6E6;fill-rule:nonzero}
   ]]>
  </style>
 </defs>
 <g id="Capa_x0020_1">
  <metadata id="CorelCorpID_0Corel-Layer"/>
  <g id="_2799241240080">
   <g>
    <path class="fil0" d="M56.17 15.11l0 42.53 -8.5 0 0 -42.53 -15.26 0 0 -7.78 39.01 0 0 7.78 -15.25 0zm43.39 11.8c-3.98,0 -6.98,1.3 -8.99,3.89 -2.02,2.59 -3.03,6.07 -3.03,10.43l0 16.41 -8.06 0 0 -38.29 8.06 0 0 7.71c1.3,-2.4 3.06,-4.37 5.29,-5.91 2.23,-1.53 4.6,-2.32 7.09,-2.37l0.07 8.13c-0.14,0 -0.28,0 -0.43,0zm39.16 30.73l-7.35 0 0 -5.11c-3.16,3.79 -7.41,5.69 -12.73,5.69 -3.99,0 -7.29,-1.13 -9.9,-3.38 -2.62,-2.26 -3.92,-5.27 -3.92,-9.04 0,-3.76 1.39,-6.58 4.17,-8.45 2.79,-1.87 6.55,-2.81 11.3,-2.81l10.44 0 0 -1.44c0,-5.09 -2.83,-7.63 -8.5,-7.63 -3.55,0 -7.24,1.3 -11.08,3.89l-3.6 -5.04c4.66,-3.69 9.93,-5.54 15.84,-5.54 4.51,0 8.19,1.14 11.04,3.42 2.86,2.28 4.29,5.86 4.29,10.76l0 24.68zm-8.07 -14.25l0 -3.24 -9.06 0c-5.81,0 -8.71,1.83 -8.71,5.47 0,1.87 0.72,3.3 2.16,4.29 1.44,0.98 3.44,1.47 6.01,1.47 2.56,0 4.81,-0.72 6.73,-2.16 1.92,-1.44 2.87,-3.38 2.87,-5.83zm34.91 14.83c-4.84,0 -9.07,-1.82 -12.67,-5.47 -3.59,-3.65 -5.39,-8.45 -5.39,-14.4 0,-5.95 1.84,-10.7 5.54,-14.25 3.69,-3.55 8.09,-5.32 13.21,-5.32 5.1,0 9.22,2.16 12.34,6.48l0 -21.02 8.06 0 0 53.4 -8.06 0 0 -5.76c-2.98,4.23 -7.32,6.34 -13.03,6.34zm-10 -19.54c0,3.67 1.17,6.66 3.52,8.96 2.35,2.3 5.11,3.45 8.28,3.45 3.17,0 5.85,-1.16 8.06,-3.49 2.21,-2.32 3.31,-5.31 3.31,-8.96 0,-3.64 -1.1,-6.69 -3.31,-9.14 -2.21,-2.44 -4.92,-3.67 -8.13,-3.67 -3.22,0 -5.98,1.23 -8.28,3.67 -2.3,2.45 -3.45,5.51 -3.45,9.18zm78.37 3.34l-30.01 0c0.19,2.79 1.46,5.03 3.82,6.73 2.35,1.71 5.03,2.56 8.06,2.56 4.79,0 8.44,-1.51 10.94,-4.53l4.6 5.03c-4.12,4.27 -9.5,6.41 -16.12,6.41 -5.37,0 -9.94,-1.79 -13.71,-5.36 -3.77,-3.58 -5.65,-8.38 -5.65,-14.4 0,-6.02 1.92,-10.81 5.76,-14.36 3.84,-3.55 8.36,-5.32 13.56,-5.32 5.21,0 9.64,1.57 13.28,4.71 3.65,3.15 5.47,7.48 5.47,12.99l0 5.54zm-30.01 -6.33l21.95 0c0,-3.21 -1.01,-5.68 -3.02,-7.41 -2.02,-1.73 -4.5,-2.59 -7.45,-2.59 -2.95,0 -5.6,0.9 -7.95,2.7 -2.35,1.8 -3.53,4.23 -3.53,7.3z"/>
    <path class="fil1" d="M250.7 46.13c0.58,0 1.05,0.18 1.41,0.54 0.35,0.36 0.62,0.75 0.79,1.18 0.16,0.44 0.2,0.82 0.11,1.16 -0.1,0.33 -0.34,0.45 -0.72,0.36 -1.4,-0.15 -2.73,-0.21 -4,-0.18 -1.27,0.02 -2.82,0.06 -4.64,0.1 -0.34,0 -0.6,-0.16 -0.79,-0.5 -0.19,-0.34 -0.3,-0.7 -0.33,-1.08 -0.02,-0.38 0.04,-0.74 0.18,-1.08 0.15,-0.33 0.39,-0.48 0.72,-0.43 1.83,0.14 3.3,0.18 4.43,0.11 1.13,-0.07 2.07,-0.13 2.84,-0.18zm6.48 -11.45c0,-2.92 0.19,-5.95 0.57,-9.06 0.39,-3.12 1.35,-6.05 2.88,-8.78 0.1,-0.15 0.27,-0.44 0.51,-0.87 0.24,-0.43 0.53,-0.86 0.86,-1.29 0.34,-0.44 0.7,-0.82 1.08,-1.16 0.38,-0.33 0.74,-0.5 1.08,-0.5 0.53,0 0.88,0.34 1.04,1.01 0.17,0.67 0.26,1.25 0.26,1.73 0,0.48 -0.05,0.98 -0.15,1.51 -0.09,0.52 -0.24,1.32 -0.43,2.37 -0.53,2.54 -0.92,5.17 -1.19,7.88 -0.26,2.71 -0.39,5.36 -0.39,7.96 0,2.11 0.15,4.4 0.46,6.87 0.32,2.47 0.98,4.77 1.98,6.91 1.01,2.13 2.45,3.92 4.32,5.36 1.87,1.44 4.37,2.16 7.49,2.16 2.97,0 5.69,-0.6 8.17,-1.8 2.47,-1.2 4.64,-2.78 6.51,-4.75 1.87,-1.97 3.39,-4.23 4.57,-6.8 1.17,-2.57 1.98,-5.22 2.41,-7.95 0.14,-0.39 0.28,-1.12 0.4,-2.2 0.12,-1.08 0.22,-2.28 0.32,-3.6 0.1,-1.32 0.18,-2.65 0.25,-3.99 0.07,-1.35 0.11,-2.45 0.11,-3.31 0.1,-2.59 0.21,-4.68 0.36,-6.26 0.14,-1.59 0.67,-2.38 1.58,-2.38 0.67,0 1.3,0.22 1.87,0.65 0.58,0.43 1.07,0.97 1.48,1.62 0.41,0.65 0.71,1.35 0.9,2.12 0.19,0.77 0.24,1.49 0.14,2.16 -0.19,1.54 -0.3,3.54 -0.32,6.01 -0.03,2.47 -0.03,5.11 0,7.92 0.02,2.8 0.03,5.65 0.03,8.52 0,2.88 -0.12,5.48 -0.36,7.78 -0.24,2.3 -0.62,4.18 -1.15,5.65 -0.52,1.46 -1.27,2.19 -2.23,2.19 -0.53,0 -0.91,-0.6 -1.15,-1.8 -0.24,-1.2 -0.42,-2.56 -0.54,-4.1 -0.12,-1.53 -0.2,-3.01 -0.25,-4.43 -0.05,-1.41 -0.15,-2.31 -0.29,-2.69 -1.05,2.49 -2.39,4.76 -3.99,6.8 -1.61,2.04 -3.42,3.79 -5.44,5.25 -2.01,1.46 -4.23,2.59 -6.65,3.38 -2.43,0.8 -5.01,1.19 -7.74,1.19 -3.74,0 -6.85,-0.8 -9.32,-2.41 -2.47,-1.61 -4.45,-3.71 -5.94,-6.3 -1.49,-2.59 -2.54,-5.5 -3.16,-8.74 -0.63,-3.24 -0.94,-6.52 -0.94,-9.83zm98.31 -15.04c0.96,-0.67 1.99,-1.31 3.1,-1.9 1.1,-0.6 2.27,-0.9 3.52,-0.9 0.53,0 0.88,0.06 1.05,0.17 0.16,0.13 0.25,0.3 0.25,0.54 0,0.29 -0.13,0.6 -0.4,0.94 -0.26,0.34 -0.55,0.68 -0.86,1.04 -0.31,0.36 -0.63,0.68 -0.94,0.94 -0.31,0.26 -0.54,0.47 -0.68,0.61 -3.36,2.78 -6.8,5.65 -10.33,8.6 -3.53,2.95 -6.97,5.87 -10.33,8.75 2.69,2.83 5.31,5.51 7.85,8.06 2.54,2.54 4.93,4.96 7.16,7.27 2.23,2.3 4.28,4.46 6.15,6.47 1.87,2.02 3.46,3.89 4.75,5.62 0.15,0.19 -0.01,0.49 -0.47,0.9 -0.45,0.41 -0.94,0.61 -1.47,0.61 -0.67,0 -1.62,-0.42 -2.84,-1.26 -1.23,-0.84 -2.63,-1.94 -4.21,-3.31 -1.59,-1.37 -3.3,-2.93 -5.15,-4.68 -1.85,-1.75 -3.73,-3.54 -5.65,-5.36 -1.92,-1.82 -3.83,-3.62 -5.72,-5.4 -1.9,-1.77 -3.68,-3.36 -5.36,-4.75 -1.39,1.1 -2.77,2.2 -4.14,3.28 -1.37,1.07 -2.78,2.21 -4.25,3.41 -1.46,1.2 -2.96,2.51 -4.5,3.93 -1.53,1.41 -3.11,3.01 -4.75,4.78 -0.24,0.24 -0.49,0.57 -0.75,0.97 -0.27,0.41 -0.58,0.81 -0.94,1.19 -0.36,0.39 -0.73,0.71 -1.11,0.97 -0.39,0.27 -0.79,0.4 -1.23,0.4 -0.43,0 -0.64,-0.31 -0.64,-0.94 0,-1 0.44,-2.14 1.33,-3.42 0.89,-1.27 2.17,-2.73 3.85,-4.39 1.68,-1.65 3.7,-3.52 6.08,-5.61 2.38,-2.09 5.05,-4.43 8.02,-7.02 -2.78,-2.3 -5.4,-4.72 -7.88,-7.27 -2.47,-2.54 -4.95,-5.18 -7.45,-7.91 -0.67,-0.77 -1.39,-1.72 -2.15,-2.84 -0.77,-1.13 -1.16,-2.3 -1.16,-3.5 0,-0.57 0.24,-1.19 0.72,-1.87 0.48,-0.67 0.99,-1 1.52,-1 0.52,0 1.18,0.27 1.97,0.82 0.8,0.56 1.61,1.21 2.45,1.98 0.84,0.77 1.67,1.56 2.48,2.38 0.82,0.81 1.52,1.48 2.09,2.01 2.54,2.55 4.75,4.84 6.62,6.88 1.87,2.04 3.79,3.99 5.76,5.86 2.98,-2.69 6.01,-5.44 9.11,-8.28 3.09,-2.83 6.27,-5.42 9.53,-7.77z"/>
   </g>
   <path class="fil2" d="M7.61 75.26l152.07 0c1.63,0 2.96,1.33 2.96,2.96l0 3.95c0,1.63 -1.33,2.96 -2.96,2.96l-152.07 0c-1.63,0 -2.96,-1.33 -2.96,-2.96l0 -3.95c0,-1.63 1.33,-2.96 2.96,-2.96zm231.06 0l152.07 0c1.63,0 2.96,1.33 2.96,2.96l0 3.95c0,1.63 -1.33,2.96 -2.96,2.96l-152.07 0c-1.63,0 -2.96,-1.33 -2.96,-2.96l0 -3.95c0,-1.63 1.33,-2.96 2.96,-2.96zm-62.18 10.66c0,-0.02 0.01,-0.03 0.01,-0.05 0.05,-0.68 0.41,-1.25 0.93,-1.62 0.03,-0.02 0.06,-0.03 0.09,-0.05 0.16,-0.11 0.31,-0.18 0.49,-0.24 0.14,-0.05 0.27,-0.07 0.42,-0.09 0.08,0 0.15,-0.04 0.22,-0.04l39.37 0c1.2,0 2.19,0.99 2.19,2.2 0,1.21 -0.99,2.2 -2.19,2.2l-31.9 0 4.93 3.14c0.95,0.6 1.25,1.89 0.68,2.88l-0.17 0.29c-0.57,0.98 -1.81,1.3 -2.75,0.7l-11.38 -7.24c-0.62,-0.39 -0.93,-1.09 -0.93,-1.81 -0.01,-0.05 -0.04,-0.1 -0.04,-0.17 0.01,-0.03 0.03,-0.06 0.03,-0.1zm41.53 -9.36l-39.36 0c-1.2,0 -2.19,-0.98 -2.19,-2.18 0,-1.21 0.99,-2.2 2.19,-2.2l31.88 0 -5.07 -3.18c-0.95,-0.59 -1.25,-1.88 -0.68,-2.87l0.17 -0.28c0.58,-0.99 1.83,-1.3 2.78,-0.7l11.49 7.2c0.65,0.41 0.97,1.14 0.95,1.88 0,0.05 0.03,0.1 0.03,0.15 0,1.2 -0.98,2.18 -2.19,2.18z"/>
  </g>
 </g>
</svg>
