<?xml version="1.0" encoding="UTF-8"?>
<!DOCTYPE svg PUBLIC "-//W3C//DTD SVG 1.1//EN" "http://www.w3.org/Graphics/SVG/1.1/DTD/svg11.dtd">
<!-- Creator: CorelDRAW 2020 (64-Bit) -->
<svg xmlns="http://www.w3.org/2000/svg" xml:space="preserve" width="210mm" height="297mm" version="1.1" style="shape-rendering:geometricPrecision; text-rendering:geometricPrecision; image-rendering:optimizeQuality; fill-rule:evenodd; clip-rule:evenodd"
viewBox="0 0 21000 29700"
 xmlns:xlink="http://www.w3.org/1999/xlink"
 xmlns:xodm="http://www.corel.com/coreldraw/odm/2003">
 <defs>
  <style type="text/css">
   <![CDATA[
    .fil0 {fill:#FEFEFE;fill-rule:nonzero}
   ]]>
  </style>
 </defs>
 <g id="Capa_x0020_1">
  <metadata id="CorelCorpID_0Corel-Layer"/>
  <g id="__x0023_ffffffff">
  </g>
  <g id="__x0023_000000ff">
   <g>
    <path class="fil0" d="M3764.16 6092.24l13516.38 0c342.09,5.63 680.94,121.87 953.66,328.63 399.19,296.92 648.73,783.04 654.35,1281.09l0 10221.95c-19.26,355.56 -152.04,704.8 -382.32,977.35 -301.52,364.93 -767.18,586.34 -1240.86,588.22l-13473.76 0c-346.01,-6.65 -688.61,-125.45 -962.7,-336.81 -389.64,-294.36 -633.89,-769.4 -644.29,-1257.91l0 -10194.34c6.14,-415.55 178.63,-824.97 471.8,-1119.33 289.08,-296.75 694.07,-473.51 1107.74,-488.85l0 0zm-54.2 1102.29c-246.98,46.7 -439.24,282.6 -434.3,534.02 -0.51,3369.08 0,6738.32 -0.17,10107.41 -5.97,181.86 85.05,363.22 235.73,465.32 94.77,66.82 211.01,99.54 326.58,97.33 4471.54,-0.18 8943.08,0.34 13414.62,-0.18 223.28,2.56 436.35,-147.77 511.34,-357.59 43.29,-108.58 32.9,-226.7 33.92,-340.73 -0.17,-3324.08 0.34,-6648 -0.34,-9972.08 6.99,-291.29 -254.48,-552.59 -545.95,-544.75 -4471.02,-0.51 -8941.88,0 -13412.91,-0.17 -42.95,0.17 -86.25,2.73 -128.52,11.42z"/>
   </g>
   <g>
    <path class="fil0" d="M6609.63 9392.8c387.08,-220.56 842.86,-316.18 1286.2,-273.57 477.09,42.95 936.61,250.22 1286.54,576.97 409.25,376.86 666.62,913.77 699.69,1469.61 51.14,702.58 -265.05,1417.78 -817.64,1854.13 548.16,286.87 1002.24,735.49 1334.45,1254.33 381.8,594.87 606.45,1283.99 681.28,1985.21 -270.85,29.15 -541.86,57.95 -812.87,85.05 -78.07,-733.43 -353.51,-1457.84 -844.23,-2015.21 -384.36,-438.73 -920.94,-764.46 -1509.32,-817.98 -211.36,-11.59 -425.96,-10.91 -633.22,38.69 -444.53,97.84 -846.96,345.5 -1163.65,669.19 -556,568.27 -864.85,1345 -946.16,2128.89 -270.84,-28.29 -541.68,-56.93 -812.69,-83.35 78.06,-758.32 333.57,-1503.69 772.64,-2129.74 313.96,-448.45 723.04,-836.06 1207.11,-1095.82 -401.23,-306.8 -686.22,-760.2 -795.31,-1252.79 -98.69,-441.46 -57.78,-913.61 119.14,-1330.35 186.99,-446.4 526.69,-825.99 948.04,-1063.26l0 0zm886.16 547.99c-362.72,49.26 -700.37,251.58 -917.01,546.12 -178.8,239.48 -275.45,538.62 -270.68,837.41 2.39,296.24 104.49,590.43 286.02,824.63 207.26,270.84 517.99,460.21 854.28,518.5 124.09,23.7 251.25,14.32 376.69,11.93 520.72,-40.73 991.84,-415.2 1163.14,-906.61 108.75,-302.03 107.21,-642.25 -4.94,-943.09 -115.22,-313.28 -348.56,-580.89 -642.93,-738.21 -255.84,-138.74 -556.68,-191.24 -844.57,-150.68z"/>
   </g>
   <path class="fil0" d="M12607.53 9137.64c69.72,-14.66 141.48,-11.25 212.55,-11.42 1039.91,0 2079.81,0.17 3119.71,-0.17 106.53,-4.09 215.62,13.29 309.88,65.45 217.32,112.5 334.76,382.15 268.46,618.05 -57.27,234.54 -286.02,410.95 -527.37,407.37 -1090.7,0.34 -2181.4,0.34 -3271.93,0 -159.19,0.85 -316.35,-72.44 -418.11,-194.65 -130.73,-152.21 -164.14,-378.4 -85.05,-562.48 67.5,-162.95 218.86,-287.55 391.86,-322.15z"/>
   <path class="fil0" d="M12607.36 12410.25c53.01,-11.08 107.55,-11.93 161.59,-11.59 1079.61,0.85 2159.24,-0.86 3238.85,0.85 254.14,2.22 485.95,206.58 521.24,458.17 43.29,241.35 -100.4,498.05 -327.44,589.06 -103.63,46.88 -219.02,44.49 -329.99,42.96 -1033.94,0.17 -2067.87,-0.17 -3101.81,0.17 -102.95,3.41 -208.63,-11.59 -300.5,-60.51 -200.79,-99.88 -323.85,-332.38 -291.64,-554.81 25.23,-225.5 207.1,-421.18 429.7,-464.3z"/>
   <path class="fil0" d="M12607.53 15682.85c42.1,-8.69 85.23,-11.42 128.35,-11.42 1085.58,0.18 2171.17,-0.34 3256.76,0.18 171.98,-0.68 341.4,86.07 440.77,226.52 126.13,171.13 136.7,417.43 24.72,598.44 -95.28,161.76 -278.68,266.41 -466.52,265.56 -1062.74,0.52 -2125.32,0 -3188.06,0.17 -78.24,0.51 -158.18,1.71 -233.86,-20.96 -173.86,-47.9 -318.57,-188 -371.4,-360.5 -62.9,-193.29 -5.8,-418.96 142.83,-557.88 73.29,-70.39 166.87,-119.65 266.41,-140.11z"/>
  </g>
 </g>
</svg>
